<svg xmlns="http://www.w3.org/2000/svg" width="24" height="24" fill="none" viewBox="0 0 24 24"><path fill="url(#a)" d="M19.5 13.5a1.48 1.48 0 0 1-.977 1.4l-4.836 1.787-1.78 4.84a1.493 1.493 0 0 1-2.802 0l-1.793-4.84-4.839-1.78a1.492 1.492 0 0 1 0-2.802l4.84-1.793 1.78-4.839a1.492 1.492 0 0 1 2.802 0l1.792 4.84 4.84 1.78A1.48 1.48 0 0 1 19.5 13.5m-5.25-9h1.5V6a.75.75 0 1 0 1.5 0V4.5h1.5a.75.75 0 1 0 0-1.5h-1.5V1.5a.75.75 0 1 0-1.5 0V3h-1.5a.75.75 0 1 0 0 1.5m8.25 3h-.75v-.75a.75.75 0 1 0-1.5 0v.75h-.75a.75.75 0 1 0 0 1.5h.75v.75a.75.75 0 1 0 1.5 0V9h.75a.75.75 0 1 0 0-1.5"/><defs><linearGradient id="a" x1="12.37" x2="12.37" y1=".75" y2="22.5" gradientUnits="userSpaceOnUse"><stop stop-color="#d14671"/><stop offset="1" stop-color="#892c6c"/></linearGradient></defs></svg>