<svg xmlns="http://www.w3.org/2000/svg" width="15" height="15" fill="none" viewBox="0 0 15 15"><path fill="#d14671" d="m11.69 7.582-3.118-1.15-1.152-3.12a1.245 1.245 0 0 0-2.336 0l-1.15 3.12-3.12 1.15a1.245 1.245 0 0 0 0 2.336l3.118 1.15 1.152 3.12a1.245 1.245 0 0 0 2.336 0l1.15-3.118 3.12-1.152a1.245 1.245 0 0 0 0-2.336M7.727 9.779a.75.75 0 0 0-.444.445l-1.032 2.794-1.03-2.794a.75.75 0 0 0-.444-.445L1.984 8.75l2.794-1.03a.75.75 0 0 0 .444-.444l1.03-2.793 1.03 2.793a.75.75 0 0 0 .444.445l2.793 1.029zm.274-7.529a.75.75 0 0 1 .75-.75h.75V.75a.75.75 0 0 1 1.5 0v.75h.75a.75.75 0 1 1 0 1.5h-.75v.75a.75.75 0 1 1-1.5 0V3h-.75a.75.75 0 0 1-.75-.75m7 3a.75.75 0 0 1-.75.75h-.25v.25a.75.75 0 1 1-1.5 0V6h-.25a.75.75 0 1 1 0-1.5h.25v-.25a.75.75 0 1 1 1.5 0v.25h.25a.75.75 0 0 1 .75.75"/></svg>