<svg preserveAspectRatio="none" width="100%" height="100%" overflow="visible" style="display: block;" viewBox="0 0 18 20" fill="none" xmlns="http://www.w3.org/2000/svg">
<path id="Vector" d="M16.5 6.75H1.5C1.10218 6.75 0.720644 6.90804 0.43934 7.18934C0.158035 7.47064 0 7.85218 0 8.25V10.5C0 10.8978 0.158035 11.2794 0.43934 11.5607C0.720644 11.842 1.10218 12 1.5 12H16.5C16.8978 12 17.2794 11.842 17.5607 11.5607C17.842 11.2794 18 10.8978 18 10.5V8.25C18 7.85218 17.842 7.47064 17.5607 7.18934C17.2794 6.90804 16.8978 6.75 16.5 6.75ZM16.5 10.5H1.5V8.25H16.5V10.5ZM16.5 0H1.5C1.10218 0 0.720644 0.158035 0.43934 0.43934C0.158035 0.720644 0 1.10218 0 1.5V3.75C0 4.14782 0.158035 4.52936 0.43934 4.81066C0.720644 5.09196 1.10218 5.25 1.5 5.25H16.5C16.8978 5.25 17.2794 5.09196 17.5607 4.81066C17.842 4.52936 18 4.14782 18 3.75V1.5C18 1.10218 17.842 0.720644 17.5607 0.43934C17.2794 0.158035 16.8978 0 16.5 0ZM16.5 3.75H1.5V1.5H16.5V3.75ZM12 16.5C12 16.6989 11.921 16.8897 11.7803 17.0303C11.6397 17.171 11.4489 17.25 11.25 17.25H9.75V18.75C9.75 18.9489 9.67098 19.1397 9.53033 19.2803C9.38968 19.421 9.19891 19.5 9 19.5C8.80109 19.5 8.61032 19.421 8.46967 19.2803C8.32902 19.1397 8.25 18.9489 8.25 18.75V17.25H6.75C6.55109 17.25 6.36032 17.171 6.21967 17.0303C6.07902 16.8897 6 16.6989 6 16.5C6 16.3011 6.07902 16.1103 6.21967 15.9697C6.36032 15.829 6.55109 15.75 6.75 15.75H8.25V14.25C8.25 14.0511 8.32902 13.8603 8.46967 13.7197C8.61032 13.579 8.80109 13.5 9 13.5C9.19891 13.5 9.38968 13.579 9.53033 13.7197C9.67098 13.8603 9.75 14.0511 9.75 14.25V15.75H11.25C11.4489 15.75 11.6397 15.829 11.7803 15.9697C11.921 16.1103 12 16.3011 12 16.5Z" fill="var(--fill-0, #D14671)"/>
</svg>
