<svg preserveAspectRatio="none" width="100%" height="100%" overflow="visible" style="display: block;" viewBox="0 0 18 18" fill="none" xmlns="http://www.w3.org/2000/svg">
<path id="Vector" d="M0.75 9C0.948912 9 1.13968 8.92098 1.28033 8.78033C1.42098 8.63968 1.5 8.44891 1.5 8.25V1.5H9.75V6C9.75 6.19891 9.82902 6.38968 9.96967 6.53033C10.1103 6.67098 10.3011 6.75 10.5 6.75H15V8.25C15 8.44891 15.079 8.63968 15.2197 8.78033C15.3603 8.92098 15.5511 9 15.75 9C15.9489 9 16.1397 8.92098 16.2803 8.78033C16.421 8.63968 16.5 8.44891 16.5 8.25V6C16.5001 5.90148 16.4807 5.80391 16.4431 5.71286C16.4055 5.62182 16.3503 5.53908 16.2806 5.46938L11.0306 0.219375C10.9609 0.149749 10.8782 0.094539 10.7871 0.0568979C10.6961 0.0192569 10.5985 -7.72394e-05 10.5 2.31899e-07H1.5C1.10218 2.31899e-07 0.720644 0.158035 0.43934 0.43934C0.158035 0.720645 0 1.10218 0 1.5V8.25C0 8.44891 0.0790178 8.63968 0.21967 8.78033C0.360322 8.92098 0.551088 9 0.75 9ZM11.25 2.56031L13.9397 5.25H11.25V2.56031ZM17.625 17.25C17.625 17.4489 17.546 17.6397 17.4053 17.7803C17.2647 17.921 17.0739 18 16.875 18H14.25C14.0511 18 13.8603 17.921 13.7197 17.7803C13.579 17.6397 13.5 17.4489 13.5 17.25V12C13.5 11.8011 13.579 11.6103 13.7197 11.4697C13.8603 11.329 14.0511 11.25 14.25 11.25C14.4489 11.25 14.6397 11.329 14.7803 11.4697C14.921 11.6103 15 11.8011 15 12V16.5H16.875C17.0739 16.5 17.2647 16.579 17.4053 16.7197C17.546 16.8603 17.625 17.0511 17.625 17.25ZM4.85812 16.1541C4.82889 16.4409 4.73647 16.7177 4.5875 16.9646C4.43853 17.2115 4.23672 17.4223 3.99656 17.5819C3.51 17.9062 2.90625 18 2.35687 18C1.87774 17.9975 1.40085 17.9345 0.9375 17.8125C0.748201 17.7571 0.588364 17.6293 0.492608 17.4568C0.396852 17.2844 0.372886 17.0811 0.425902 16.8912C0.478917 16.7012 0.604645 16.5397 0.775855 16.4418C0.947064 16.3438 1.14997 16.3172 1.34062 16.3678C1.75125 16.4803 2.74219 16.6209 3.17344 16.3341C3.25687 16.2787 3.345 16.1916 3.37406 15.9656C3.40687 15.7153 3.3075 15.5813 2.17594 15.2541C1.29937 15.0009 -0.167813 14.5763 0.0196874 13.0875C0.0488699 12.8063 0.13959 12.5349 0.285409 12.2927C0.431228 12.0505 0.628573 11.8433 0.863437 11.6859C1.97344 10.9359 3.74344 11.3756 3.94125 11.4272C4.03654 11.4523 4.12595 11.4959 4.20438 11.5556C4.2828 11.6153 4.34871 11.6898 4.39833 11.775C4.44795 11.8601 4.48032 11.9542 4.49358 12.0518C4.50684 12.1495 4.50074 12.2488 4.47562 12.3441C4.45051 12.4394 4.40687 12.5288 4.3472 12.6072C4.28753 12.6856 4.213 12.7515 4.12786 12.8011C4.04272 12.8508 3.94864 12.8831 3.85099 12.8964C3.75334 12.9097 3.65404 12.9036 3.55875 12.8784C3.13781 12.7687 2.13187 12.6384 1.70062 12.9309C1.6441 12.9691 1.59756 13.0202 1.56493 13.0801C1.5323 13.14 1.51453 13.2068 1.51312 13.275C1.50187 13.3594 1.5 13.3763 1.61812 13.4531C1.83469 13.5928 2.22187 13.7044 2.59781 13.8131C3.51562 14.0784 5.06812 14.5312 4.85812 16.1541ZM11.5144 16.4569C11.8342 15.8995 12.0017 15.2677 12 14.625C12 12.7641 10.6547 11.25 9 11.25C7.34531 11.25 6 12.7641 6 14.625C6 16.4859 7.34531 18 9 18C9.52979 17.9981 10.0476 17.8424 10.4906 17.5519L10.7194 17.7806C10.8601 17.9212 11.0509 18.0002 11.2499 18.0001C11.4488 18 11.6395 17.9209 11.7802 17.7802C11.9208 17.6394 11.9997 17.4486 11.9996 17.2497C11.9995 17.0507 11.9204 16.86 11.7797 16.7194L11.5144 16.4569ZM9 16.5C8.17313 16.5 7.5 15.6562 7.5 14.625C7.5 13.5938 8.17313 12.75 9 12.75C9.82687 12.75 10.5 13.5938 10.5 14.625C10.5001 14.864 10.4628 15.1016 10.3894 15.3291L10.2797 15.2194C10.21 15.1498 10.1273 15.0945 10.0363 15.0569C9.94525 15.0192 9.8477 14.9999 9.7492 14.9999C9.55027 15 9.35951 15.0791 9.21891 15.2198C9.0783 15.3606 8.99936 15.5514 8.99944 15.7503C8.99953 15.9493 9.07864 16.14 9.21937 16.2806L9.37688 16.4372C9.25536 16.4779 9.12816 16.4991 9 16.5Z" fill="var(--fill-0, #D14671)"/>
</svg>
