<svg preserveAspectRatio="none" width="100%" height="100%" overflow="visible" style="display: block;" viewBox="0 0 20 13" fill="none" xmlns="http://www.w3.org/2000/svg">
<path id="Vector" d="M0 4.5C0 4.30109 0.0790176 4.11032 0.21967 3.96967C0.360322 3.82902 0.551088 3.75 0.75 3.75H8.25C8.44891 3.75 8.63968 3.82902 8.78033 3.96967C8.92098 4.11032 9 4.30109 9 4.5C9 4.69891 8.92098 4.88968 8.78033 5.03033C8.63968 5.17098 8.44891 5.25 8.25 5.25H0.75C0.551088 5.25 0.360322 5.17098 0.21967 5.03033C0.0790176 4.88968 0 4.69891 0 4.5ZM18.75 3.75H11.25C11.0511 3.75 10.8603 3.82902 10.7197 3.96967C10.579 4.11032 10.5 4.30109 10.5 4.5C10.5 4.69891 10.579 4.88968 10.7197 5.03033C10.8603 5.17098 11.0511 5.25 11.25 5.25H18.75C18.9489 5.25 19.1397 5.17098 19.2803 5.03033C19.421 4.88968 19.5 4.69891 19.5 4.5C19.5 4.30109 19.421 4.11032 19.2803 3.96967C19.1397 3.82902 18.9489 3.75 18.75 3.75ZM4.5 7.5H0.75C0.551088 7.5 0.360322 7.57902 0.21967 7.71967C0.0790176 7.86032 0 8.05109 0 8.25C0 8.44891 0.0790176 8.63968 0.21967 8.78033C0.360322 8.92098 0.551088 9 0.75 9H4.5C4.69891 9 4.88968 8.92098 5.03033 8.78033C5.17098 8.63968 5.25 8.44891 5.25 8.25C5.25 8.05109 5.17098 7.86032 5.03033 7.71967C4.88968 7.57902 4.69891 7.5 4.5 7.5ZM18.75 7.5H15C14.8011 7.5 14.6103 7.57902 14.4697 7.71967C14.329 7.86032 14.25 8.05109 14.25 8.25C14.25 8.44891 14.329 8.63968 14.4697 8.78033C14.6103 8.92098 14.8011 9 15 9H18.75C18.9489 9 19.1397 8.92098 19.2803 8.78033C19.421 8.63968 19.5 8.44891 19.5 8.25C19.5 8.05109 19.421 7.86032 19.2803 7.71967C19.1397 7.57902 18.9489 7.5 18.75 7.5ZM6.75 8.25C6.75 8.44891 6.82902 8.63968 6.96967 8.78033C7.11032 8.92098 7.30109 9 7.5 9H12C12.1989 9 12.3897 8.92098 12.5303 8.78033C12.671 8.63968 12.75 8.44891 12.75 8.25C12.75 8.05109 12.671 7.86032 12.5303 7.71967C12.3897 7.57902 12.1989 7.5 12 7.5H7.5C7.30109 7.5 7.11032 7.57902 6.96967 7.71967C6.82902 7.86032 6.75 8.05109 6.75 8.25ZM3 11.25H0.75C0.551088 11.25 0.360322 11.329 0.21967 11.4697C0.0790176 11.6103 0 11.8011 0 12C0 12.1989 0.0790176 12.3897 0.21967 12.5303C0.360322 12.671 0.551088 12.75 0.75 12.75H3C3.19891 12.75 3.38968 12.671 3.53033 12.5303C3.67098 12.3897 3.75 12.1989 3.75 12C3.75 11.8011 3.67098 11.6103 3.53033 11.4697C3.38968 11.329 3.19891 11.25 3 11.25ZM8.25 11.25H6C5.80109 11.25 5.61032 11.329 5.46967 11.4697C5.32902 11.6103 5.25 11.8011 5.25 12C5.25 12.1989 5.32902 12.3897 5.46967 12.5303C5.61032 12.671 5.80109 12.75 6 12.75H8.25C8.44891 12.75 8.63968 12.671 8.78033 12.5303C8.92098 12.3897 9 12.1989 9 12C9 11.8011 8.92098 11.6103 8.78033 11.4697C8.63968 11.329 8.44891 11.25 8.25 11.25ZM13.5 11.25H11.25C11.0511 11.25 10.8603 11.329 10.7197 11.4697C10.579 11.6103 10.5 11.8011 10.5 12C10.5 12.1989 10.579 12.3897 10.7197 12.5303C10.8603 12.671 11.0511 12.75 11.25 12.75H13.5C13.6989 12.75 13.8897 12.671 14.0303 12.5303C14.171 12.3897 14.25 12.1989 14.25 12C14.25 11.8011 14.171 11.6103 14.0303 11.4697C13.8897 11.329 13.6989 11.25 13.5 11.25ZM18.75 11.25H16.5C16.3011 11.25 16.1103 11.329 15.9697 11.4697C15.829 11.6103 15.75 11.8011 15.75 12C15.75 12.1989 15.829 12.3897 15.9697 12.5303C16.1103 12.671 16.3011 12.75 16.5 12.75H18.75C18.9489 12.75 19.1397 12.671 19.2803 12.5303C19.421 12.3897 19.5 12.1989 19.5 12C19.5 11.8011 19.421 11.6103 19.2803 11.4697C19.1397 11.329 18.9489 11.25 18.75 11.25ZM0.75 1.5H18.75C18.9489 1.5 19.1397 1.42098 19.2803 1.28033C19.421 1.13968 19.5 0.948912 19.5 0.75C19.5 0.551088 19.421 0.360322 19.2803 0.21967C19.1397 0.0790178 18.9489 0 18.75 0H0.75C0.551088 0 0.360322 0.0790178 0.21967 0.21967C0.0790176 0.360322 0 0.551088 0 0.75C0 0.948912 0.0790176 1.13968 0.21967 1.28033C0.360322 1.42098 0.551088 1.5 0.75 1.5Z" fill="var(--fill-0, #D14671)"/>
</svg>
