<svg preserveAspectRatio="none" width="100%" height="100%" overflow="visible" style="display: block;" viewBox="0 0 20 18" fill="none" xmlns="http://www.w3.org/2000/svg">
<path id="Vector" d="M8.25001 11.2485C8.0511 11.2485 7.86033 11.3275 7.71968 11.4682C7.57903 11.6088 7.50001 11.7996 7.50001 11.9985V14.6882L3.96938 11.1547C3.82945 11.0147 3.7506 10.8249 3.75001 10.6269V5.90474C4.457 5.72219 5.07315 5.28807 5.48296 4.68373C5.89277 4.0794 6.0681 3.34635 5.9761 2.62199C5.88409 1.89763 5.53106 1.23169 4.98318 0.748996C4.4353 0.266305 3.73019 0 3.00001 0C2.26983 0 1.56471 0.266305 1.01683 0.748996C0.468953 1.23169 0.115924 1.89763 0.0239182 2.62199C-0.0680876 3.34635 0.107247 4.0794 0.517056 4.68373C0.926865 5.28807 1.54301 5.72219 2.25001 5.90474V10.6279C2.24851 10.9237 2.30574 11.2169 2.41839 11.4905C2.53104 11.7641 2.69687 12.0126 2.90626 12.2216L6.4397 15.7485H3.75001C3.5511 15.7485 3.36033 15.8275 3.21968 15.9682C3.07903 16.1088 3.00001 16.2996 3.00001 16.4985C3.00001 16.6974 3.07903 16.8882 3.21968 17.0288C3.36033 17.1695 3.5511 17.2485 3.75001 17.2485H8.25001C8.44892 17.2485 8.63969 17.1695 8.78034 17.0288C8.92099 16.8882 9.00001 16.6974 9.00001 16.4985V11.9985C9.00001 11.7996 8.92099 11.6088 8.78034 11.4682C8.63969 11.3275 8.44892 11.2485 8.25001 11.2485ZM1.50001 2.99849C1.50001 2.70182 1.58798 2.41181 1.7528 2.16513C1.91763 1.91846 2.15189 1.7262 2.42598 1.61267C2.70007 1.49914 3.00167 1.46943 3.29264 1.52731C3.58361 1.58519 3.85089 1.72805 4.06067 1.93783C4.27045 2.14761 4.41331 2.41488 4.47119 2.70585C4.52906 2.99682 4.49936 3.29842 4.38583 3.57251C4.2723 3.8466 4.08004 4.08087 3.83336 4.24569C3.58669 4.41051 3.29668 4.49849 3.00001 4.49849C2.60218 4.49849 2.22065 4.34045 1.93935 4.05915C1.65804 3.77784 1.50001 3.39631 1.50001 2.99849ZM17.25 12.0922V7.37005C17.2515 7.07419 17.1943 6.78098 17.0816 6.5074C16.969 6.23382 16.8031 5.98532 16.5938 5.7763L13.0603 2.24849H15.75C15.9489 2.24849 16.1397 2.16947 16.2803 2.02882C16.421 1.88817 16.5 1.6974 16.5 1.49849C16.5 1.29958 16.421 1.10881 16.2803 0.968158C16.1397 0.827505 15.9489 0.748488 15.75 0.748488H11.25C11.0511 0.748488 10.8603 0.827505 10.7197 0.968158C10.579 1.10881 10.5 1.29958 10.5 1.49849V5.99849C10.5 6.1974 10.579 6.38816 10.7197 6.52882C10.8603 6.66947 11.0511 6.74849 11.25 6.74849C11.4489 6.74849 11.6397 6.66947 11.7803 6.52882C11.921 6.38816 12 6.1974 12 5.99849V3.3088L15.5306 6.84224C15.6003 6.91194 15.6555 6.99468 15.6931 7.08572C15.7308 7.17677 15.7501 7.27434 15.75 7.37286V12.0922C15.043 12.2748 14.4269 12.7089 14.0171 13.3132C13.6072 13.9176 13.4319 14.6506 13.5239 15.375C13.6159 16.0993 13.969 16.7653 14.5168 17.248C15.0647 17.7307 15.7698 17.997 16.5 17.997C17.2302 17.997 17.9353 17.7307 18.4832 17.248C19.0311 16.7653 19.3841 16.0993 19.4761 15.375C19.5681 14.6506 19.3928 13.9176 18.983 13.3132C18.5732 12.7089 17.957 12.2748 17.25 12.0922ZM16.5 16.4985C16.2033 16.4985 15.9133 16.4105 15.6667 16.2457C15.42 16.0809 15.2277 15.8466 15.1142 15.5725C15.0007 15.2984 14.971 14.9968 15.0288 14.7059C15.0867 14.4149 15.2296 14.1476 15.4393 13.9378C15.6491 13.728 15.9164 13.5852 16.2074 13.5273C16.4983 13.4694 16.7999 13.4991 17.074 13.6127C17.3481 13.7262 17.5824 13.9185 17.7472 14.1651C17.912 14.4118 18 14.7018 18 14.9985C18 15.3963 17.842 15.7778 17.5607 16.0591C17.2794 16.3405 16.8978 16.4985 16.5 16.4985Z" fill="var(--fill-0, #D14671)"/>
</svg>
