<svg width="132" height="32" viewBox="0 0 132 32" fill="none" xmlns="http://www.w3.org/2000/svg">
<rect x="0.25" y="0.25" width="31.5" height="31.5" rx="15.75" fill="#262833"/>
<rect x="0.25" y="0.25" width="31.5" height="31.5" rx="15.75" stroke="#44475A" stroke-width="0.5"/>
<g clip-path="url(#clip0_11_3904)">
<mask id="mask0_11_3904" style="mask-type:alpha" maskUnits="userSpaceOnUse" x="6" y="6" width="20" height="20">
<path d="M15.9837 6C16.1929 6 16.3754 6.14308 16.4265 6.34615C16.5826 6.96727 16.7882 7.57486 17.0415 8.16308C17.7037 9.70154 18.6123 11.048 19.7658 12.2015C20.92 13.3554 22.2662 14.264 23.8043 14.9262C24.3927 15.1794 25.0003 15.3851 25.6215 15.5412C25.8246 15.5923 25.9674 15.7745 25.9674 15.9837C25.9674 16.1929 25.8246 16.3754 25.6212 16.4265C25.0001 16.5826 24.3925 16.7882 23.8043 17.0415C22.2658 17.7037 20.9197 18.6123 19.7658 19.7658C18.6123 20.92 17.7037 22.2662 17.0415 23.8043C16.7882 24.3926 16.5824 25.0003 16.4262 25.6215C16.4014 25.7202 16.3445 25.8078 16.2643 25.8705C16.1842 25.9331 16.0854 25.9672 15.9837 25.9674C15.7745 25.9674 15.5923 25.8246 15.5412 25.6212C15.385 25.0001 15.1792 24.3925 14.9258 23.8043C14.264 22.2658 13.3557 20.9197 12.2015 19.7658C11.0477 18.6123 9.70154 17.7037 8.16308 17.0415C7.57484 16.7882 6.96726 16.5824 6.34615 16.4262C6.24747 16.4015 6.15984 16.3446 6.09714 16.2645C6.03444 16.1844 6.00025 16.0857 6 15.984C6 15.7748 6.14308 15.5926 6.34615 15.5415C6.96728 15.3853 7.57487 15.1796 8.16308 14.9262C9.70154 14.2643 11.048 13.3557 12.2015 12.2018C13.3554 11.0483 14.264 9.70185 14.9262 8.16338C15.1794 7.57514 15.3851 6.96756 15.5412 6.34646C15.5658 6.24767 15.6227 6.15993 15.7029 6.09717C15.7831 6.0344 15.8819 6.0002 15.9837 6Z" fill="black"/>
<path d="M15.9837 6C16.1929 6 16.3754 6.14308 16.4265 6.34615C16.5826 6.96727 16.7882 7.57486 17.0415 8.16308C17.7037 9.70154 18.6123 11.048 19.7658 12.2015C20.92 13.3554 22.2662 14.264 23.8043 14.9262C24.3927 15.1794 25.0003 15.3851 25.6215 15.5412C25.8246 15.5923 25.9674 15.7745 25.9674 15.9837C25.9674 16.1929 25.8246 16.3754 25.6212 16.4265C25.0001 16.5826 24.3925 16.7882 23.8043 17.0415C22.2658 17.7037 20.9197 18.6123 19.7658 19.7658C18.6123 20.92 17.7037 22.2662 17.0415 23.8043C16.7882 24.3926 16.5824 25.0003 16.4262 25.6215C16.4014 25.7202 16.3445 25.8078 16.2643 25.8705C16.1842 25.9331 16.0854 25.9672 15.9837 25.9674C15.7745 25.9674 15.5923 25.8246 15.5412 25.6212C15.385 25.0001 15.1792 24.3925 14.9258 23.8043C14.264 22.2658 13.3557 20.9197 12.2015 19.7658C11.0477 18.6123 9.70154 17.7037 8.16308 17.0415C7.57484 16.7882 6.96726 16.5824 6.34615 16.4262C6.24747 16.4015 6.15984 16.3446 6.09714 16.2645C6.03444 16.1844 6.00025 16.0857 6 15.984C6 15.7748 6.14308 15.5926 6.34615 15.5415C6.96728 15.3853 7.57487 15.1796 8.16308 14.9262C9.70154 14.2643 11.048 13.3557 12.2015 12.2018C13.3554 11.0483 14.264 9.70185 14.9262 8.16338C15.1794 7.57514 15.3851 6.96756 15.5412 6.34646C15.5658 6.24767 15.6227 6.15993 15.7029 6.09717C15.7831 6.0344 15.8819 6.0002 15.9837 6Z" fill="url(#paint0_linear_11_3904)"/>
</mask>
<g mask="url(#mask0_11_3904)">
<g filter="url(#filter0_f_11_3904)">
<path d="M4.19723 21.6105C6.50431 22.4299 9.156 20.8936 10.12 18.1791C11.084 15.4649 9.99508 12.6003 7.688 11.7809C5.38093 10.9616 2.72924 12.4979 1.76493 15.212C0.801235 17.9265 1.89016 20.7911 4.19723 21.6105Z" fill="#FFE432"/>
</g>
<g filter="url(#filter1_f_11_3904)">
<path d="M14.441 12.6621C17.6103 12.6621 20.1798 10.0359 20.1798 6.79687C20.1798 3.55749 17.6106 0.931641 14.441 0.931641C11.2715 0.931641 8.70166 3.55779 8.70166 6.79687C8.70166 10.0359 11.2712 12.6621 14.441 12.6621Z" fill="#FC413D"/>
</g>
<g filter="url(#filter2_f_11_3904)">
<path d="M12.2105 31.4178C15.5191 31.2563 18.0314 27.6504 17.8219 23.3643C17.6126 19.0781 14.7603 15.7344 11.4517 15.8963C8.1431 16.0581 5.6308 19.6636 5.84034 23.9498C6.04987 28.236 8.90187 31.5796 12.2105 31.4178Z" fill="#00B95C"/>
</g>
<g filter="url(#filter3_f_11_3904)">
<path d="M12.2105 31.4178C15.5191 31.2563 18.0314 27.6504 17.8219 23.3643C17.6126 19.0781 14.7603 15.7344 11.4517 15.8963C8.1431 16.0581 5.6308 19.6636 5.84034 23.9498C6.04987 28.236 8.90187 31.5796 12.2105 31.4178Z" fill="#00B95C"/>
</g>
<g filter="url(#filter4_f_11_3904)">
<path d="M15.5244 28.8252C18.2979 27.1375 19.0404 23.2941 17.1825 20.2406C15.3247 17.1867 11.5699 16.0793 8.79609 17.7667C6.02224 19.4547 5.27978 23.2981 7.13762 26.352C8.99609 29.4055 12.7505 30.5129 15.5244 28.8252Z" fill="#00B95C"/>
</g>
<g filter="url(#filter5_f_11_3904)">
<path d="M26.7357 19.2291C29.8533 19.2291 32.3807 16.7953 32.3807 13.7934C32.3807 10.7913 29.8533 8.35742 26.7357 8.35742C23.6182 8.35742 21.0908 10.7913 21.0908 13.7934C21.0908 16.7956 23.6182 19.2291 26.7357 19.2291Z" fill="#3186FF"/>
</g>
<g filter="url(#filter6_f_11_3904)">
<path d="M1.98006 18.599C4.85083 20.7818 9.04437 20.0972 11.3468 17.0692C13.6493 14.0415 13.189 9.81716 10.3182 7.63439C7.44744 5.45131 3.25421 6.13592 0.951441 9.16392C-1.35102 12.1916 -0.890405 16.4162 1.98006 18.599Z" fill="#FBBC04"/>
</g>
<g filter="url(#filter7_f_11_3904)">
<path d="M16.6892 21.8252C20.1154 24.1809 24.6572 23.5249 26.8332 20.3594C29.0095 17.1941 27.996 12.7188 24.5695 10.3631C21.1431 8.00676 16.6015 8.66338 14.4252 11.8283C12.2492 14.9938 13.2625 19.4692 16.6889 21.8252H16.6892Z" fill="#3186FF"/>
</g>
<g filter="url(#filter8_f_11_3904)">
<path d="M22.9182 5.2815C23.7899 6.46673 22.6696 8.77073 20.4163 10.4283C18.1628 12.0858 15.6296 12.4686 14.7579 11.2837C13.8862 10.0981 15.0062 7.79381 17.2594 6.13658C19.5129 4.47904 22.0465 4.09627 22.9179 5.28119L22.9182 5.2815Z" fill="#749BFF"/>
</g>
<g filter="url(#filter9_f_11_3904)">
<path d="M15.7622 10.9552C19.2472 7.72261 20.4432 3.34599 18.4339 1.17984C16.4247 -0.986314 11.9705 -0.122314 8.48563 3.1103C5.0007 6.34292 3.8044 10.7195 5.81393 12.8857C7.82316 15.0518 12.2773 14.1878 15.7622 10.9552Z" fill="#FC413D"/>
</g>
<g filter="url(#filter10_f_11_3904)">
<path d="M8.61845 22.5653C10.6898 24.0478 13.0677 24.273 13.9298 23.0687C14.792 21.8641 13.8117 19.6859 11.7403 18.2035C9.66922 16.721 7.29106 16.4958 6.42922 17.7001C5.56706 18.9047 6.54706 21.0829 8.61845 22.5653Z" fill="#FFEE48"/>
</g>
</g>
</g>
<rect x="20.25" y="0.25" width="31.5" height="31.5" rx="15.75" fill="#262833"/>
<rect x="20.25" y="0.25" width="31.5" height="31.5" rx="15.75" stroke="#44475A" stroke-width="0.5"/>
<g clip-path="url(#clip1_11_3904)">
<path d="M31.6721 9H28.8359V11.7882H31.6721V9Z" fill="#FFD800"/>
<path d="M43.018 9H40.1819V11.7882H43.018V9Z" fill="#FFD800"/>
<path d="M34.5082 11.7881H28.8359V14.5762H34.5082V11.7881Z" fill="#FFAF00"/>
<path d="M43.0182 11.7881H37.3459V14.5762H43.0182V11.7881Z" fill="#FFAF00"/>
<path d="M43.0183 14.5762H28.8359V17.3642H43.0183V14.5762Z" fill="#FF8205"/>
<path d="M31.6721 17.3652H28.8359V20.1534H31.6721V17.3652Z" fill="#FA500F"/>
<path d="M37.3452 17.3652H34.509V20.1534H37.3452V17.3652Z" fill="#FA500F"/>
<path d="M43.018 17.3652H40.1819V20.1534H43.018V17.3652Z" fill="#FA500F"/>
<path d="M34.5101 20.1543H26V22.9425H34.5101V20.1543Z" fill="#E10500"/>
<path d="M45.856 20.1543H37.3459V22.9425H45.856V20.1543Z" fill="#E10500"/>
</g>
<rect x="40.25" y="0.25" width="31.5" height="31.5" rx="15.75" fill="#262833"/>
<rect x="40.25" y="0.25" width="31.5" height="31.5" rx="15.75" stroke="#44475A" stroke-width="0.5"/>
<g clip-path="url(#clip2_11_3904)">
<path d="M64.6647 11.908H62.7392V6.05633L56.4814 11.3515V6.13142H55.5185V11.2952L49.742 6V11.908H47.3352V20.5727H49.742V26L55.5187 20.7007V25.8678H56.4815V20.8287L62.258 25.9793V20.5728H64.6649L64.6647 11.908ZM61.7766 8.13217V11.908H57.3141L61.7766 8.13217ZM50.7048 8.1885L54.7624 11.908H50.7048V8.1885ZM48.298 19.61V12.8708H54.8376L49.7419 17.9664V19.61H48.298ZM50.7048 23.8103V20.5727L50.7049 18.3653L55.5185 13.5517V19.3942L50.7048 23.8103ZM61.2953 23.831L56.4815 19.5386V13.5515L61.2953 18.3653V23.831ZM63.7021 19.61H62.258V17.9664L57.1623 12.8708H63.7021V19.61Z" fill="#20808D"/>
</g>
<rect x="60.25" y="0.25" width="31.5" height="31.5" rx="15.75" fill="#262833"/>
<rect x="60.25" y="0.25" width="31.5" height="31.5" rx="15.75" stroke="#44475A" stroke-width="0.5"/>
<g clip-path="url(#clip3_11_3904)">
<path d="M68.1602 18.1185C68.1602 18.8822 68.3279 19.4685 68.5469 19.8232C68.8342 20.2878 69.2626 20.4846 69.6994 20.4846C70.2628 20.4846 70.7781 20.3448 71.7713 18.9712C72.567 17.8702 73.5045 16.3248 74.1353 15.356L75.2036 13.7146C75.9458 12.5746 76.8047 11.3074 77.7895 10.4485C78.5935 9.74739 79.4608 9.35791 80.3337 9.35791C81.7991 9.35791 83.195 10.2071 84.2633 11.7998C85.4325 13.5442 86 15.7413 86 18.0086C86 19.3565 85.7343 20.3469 85.2822 21.1294C84.8455 21.8861 83.9942 22.6421 82.5621 22.6421V20.4846C83.7883 20.4846 84.0943 19.3579 84.0943 18.0684C84.0943 16.2309 83.6659 14.1917 82.7221 12.7346C82.0523 11.7011 81.1843 11.0696 80.2294 11.0696C79.1965 11.0696 78.3654 11.8485 77.4314 13.2374C76.9348 13.9754 76.425 14.8747 75.8526 15.8894L75.2224 17.0057C73.9566 19.2501 73.636 19.7613 73.0031 20.605C71.8937 22.0822 70.9464 22.6421 69.6994 22.6421C68.2201 22.6421 67.2846 22.0015 66.7052 21.0362C66.2323 20.2496 66 19.2174 66 18.0413L68.1602 18.1185Z" fill="#0081FB"/>
<path d="M67.7032 11.9522C68.6936 10.4255 70.1229 9.35791 71.7622 9.35791C72.7116 9.35791 73.6554 9.63889 74.6409 10.4436C75.719 11.3234 76.8679 12.7722 78.3014 15.1598L78.8154 16.0167C80.0561 18.0837 80.7621 19.1472 81.1752 19.6486C81.7066 20.2927 82.0787 20.4846 82.5621 20.4846C83.7882 20.4846 84.0943 19.3579 84.0943 18.0684L86 18.0086C86 19.3565 85.7343 20.3469 85.2822 21.1294C84.8454 21.8861 83.9941 22.6421 82.5621 22.6421C81.6718 22.6421 80.8831 22.4487 80.0109 21.626C79.3405 20.9944 78.5566 19.8726 77.9536 18.8641L76.1599 15.8679C75.2599 14.3642 74.4344 13.243 73.9566 12.7353C73.4426 12.1893 72.7818 11.53 71.7275 11.53C70.8741 11.53 70.1493 12.1288 69.5429 13.0448L67.7032 11.9522Z" fill="url(#paint1_linear_11_3904)"/>
<path d="M71.7275 11.53C70.8741 11.53 70.1494 12.1288 69.5429 13.0448C68.6854 14.3391 68.1602 16.2671 68.1602 18.1185C68.1602 18.8822 68.3279 19.4685 68.5469 19.8232L66.7052 21.0362C66.2323 20.2496 66 19.2174 66 18.0413C66 15.9026 66.587 13.6735 67.7033 11.9522C68.6937 10.4255 70.123 9.35791 71.7623 9.35791L71.7275 11.53Z" fill="url(#paint2_linear_11_3904)"/>
</g>
<rect x="80.25" y="0.25" width="31.5" height="31.5" rx="15.75" fill="#262833"/>
<rect x="80.25" y="0.25" width="31.5" height="31.5" rx="15.75" stroke="#44475A" stroke-width="0.5"/>
<path d="M105.79 9.75908C105.578 9.65326 105.487 9.85492 105.363 9.95729C105.321 9.99031 105.285 10.0332 105.249 10.0728C104.94 10.4099 104.578 10.6313 104.105 10.6048C103.414 10.5652 102.824 10.7866 102.303 11.3251C102.192 10.661 101.824 10.2643 101.263 10.0101C100.97 9.87791 100.673 9.74564 100.468 9.45819C100.324 9.2534 100.285 9.02535 100.214 8.80065C100.168 8.66526 100.122 8.52642 99.9691 8.50321C99.8029 8.47677 99.7376 8.6188 99.6725 8.73789C99.4118 9.22366 99.3107 9.75892 99.3206 10.3008C99.3435 11.5201 99.8486 12.4915 100.853 13.1822C100.967 13.2615 100.996 13.3408 100.96 13.4564C100.892 13.6944 100.81 13.9256 100.738 14.1636C100.693 14.3156 100.624 14.3486 100.465 14.2826C99.9138 14.0481 99.4379 13.701 99.0174 13.2814C98.3036 12.5775 97.6583 11.801 96.8532 11.193C96.6669 11.0525 96.4756 10.9192 96.2796 10.7932C95.4582 9.98033 96.3872 9.31276 96.6022 9.23354C96.8271 9.15087 96.6805 8.86676 95.9536 8.87005C95.2267 8.87334 94.5618 9.12114 93.7145 9.4516C93.5906 9.50125 93.4603 9.53756 93.3266 9.56719C92.5574 9.41847 91.7589 9.38544 90.9244 9.48123C89.3534 9.65957 88.0987 10.4163 87.1763 11.7084C86.0682 13.2617 85.8074 15.0261 86.1268 16.8666C86.4625 18.8062 87.4337 20.4122 88.9265 21.6679C90.4747 22.9696 92.2576 23.6075 94.2913 23.4852C95.5265 23.4126 96.902 23.2441 98.4534 21.9057C98.8446 22.1039 99.2552 22.1833 99.9364 22.2428C100.461 22.2924 100.966 22.2163 101.358 22.1338C101.97 22.0017 101.928 21.4233 101.706 21.3177C99.9105 20.4652 100.305 20.8122 99.9462 20.5313C100.859 19.431 102.234 18.2877 102.772 14.5834C102.814 14.2894 102.778 14.1044 102.772 13.8664C102.769 13.7212 102.801 13.6649 102.964 13.6484C103.414 13.5954 103.851 13.47 104.252 13.2452C105.415 12.5976 105.885 11.5336 105.996 10.2581C106.012 10.0632 105.992 9.86161 105.79 9.75924V9.75908ZM95.6505 21.2381C93.91 19.8439 93.0659 19.3844 92.7172 19.4043C92.3913 19.4241 92.4499 19.8041 92.5216 20.0519C92.5965 20.2965 92.6944 20.465 92.8312 20.6797C92.9257 20.8219 92.991 21.0332 92.7368 21.192C92.1762 21.5455 91.2016 21.073 91.1559 21.0498C90.0217 20.3691 89.0732 19.4704 88.405 18.2412C87.7597 17.0582 87.3849 15.7894 87.323 14.4346C87.3067 14.1075 87.4013 13.9917 87.7206 13.9324C88.141 13.853 88.5745 13.8364 88.995 13.8992C90.7713 14.1636 92.2835 14.9732 93.5514 16.2552C94.275 16.9854 94.8226 17.8578 95.3865 18.7103C95.9862 19.6157 96.6316 20.4781 97.4529 21.1853C97.743 21.4331 97.9744 21.6214 98.1961 21.7603C97.5278 21.8362 96.4131 21.8528 95.6505 21.2381ZM96.4924 15.706C96.52 15.592 96.6206 15.5086 96.7424 15.5086C96.7724 15.5086 96.8022 15.5142 96.8303 15.525C96.8662 15.5383 96.8988 15.5582 96.9249 15.5878C96.9705 15.6341 96.9966 15.7002 96.9966 15.7695C96.9966 15.915 96.8826 16.0305 96.7392 16.0305C96.6786 16.0311 96.62 16.0094 96.5739 15.9694C96.5278 15.9294 96.4974 15.8738 96.4883 15.8129C96.4827 15.7773 96.484 15.741 96.4924 15.706ZM98.992 17.1584C98.854 17.2121 98.7167 17.2543 98.5839 17.2598C98.3362 17.273 98.0657 17.1706 97.9191 17.045C97.691 16.8501 97.528 16.7411 97.4595 16.4006C97.4302 16.2552 97.4465 16.0305 97.4726 15.9017C97.5312 15.6241 97.466 15.4456 97.2738 15.2838C97.1174 15.1516 96.9185 15.1153 96.7001 15.1153C96.6187 15.1153 96.5437 15.079 96.4883 15.0492C96.397 15.003 96.3221 14.8874 96.3938 14.7452C96.4167 14.699 96.5275 14.5866 96.5536 14.5669C96.8501 14.395 97.1924 14.4512 97.5085 14.58C97.8018 14.7023 98.0235 14.927 98.3429 15.2442C98.6688 15.6274 98.7275 15.7332 98.9133 16.0207C99.06 16.2453 99.1936 16.4767 99.2849 16.741C99.3313 16.8792 99.2887 16.9967 99.1609 17.0797C99.109 17.1134 99.0493 17.136 98.992 17.1584Z" fill="#4D6BFE"/>
<rect x="100.25" y="0.25" width="31.5" height="31.5" rx="15.75" fill="#262833"/>
<rect x="100.25" y="0.25" width="31.5" height="31.5" rx="15.75" stroke="#44475A" stroke-width="0.5"/>
<path d="M122.25 16C122.25 16.1989 122.171 16.3897 122.03 16.5303C121.89 16.671 121.699 16.75 121.5 16.75H116.75V21.5C116.75 21.6989 116.671 21.8897 116.53 22.0303C116.39 22.171 116.199 22.25 116 22.25C115.801 22.25 115.61 22.171 115.47 22.0303C115.329 21.8897 115.25 21.6989 115.25 21.5V16.75H110.5C110.301 16.75 110.11 16.671 109.97 16.5303C109.829 16.3897 109.75 16.1989 109.75 16C109.75 15.8011 109.829 15.6103 109.97 15.4697C110.11 15.329 110.301 15.25 110.5 15.25H115.25V10.5C115.25 10.3011 115.329 10.1103 115.47 9.96967C115.61 9.82902 115.801 9.75 116 9.75C116.199 9.75 116.39 9.82902 116.53 9.96967C116.671 10.1103 116.75 10.3011 116.75 10.5V15.25H121.5C121.699 15.25 121.89 15.329 122.03 15.4697C122.171 15.6103 122.25 15.8011 122.25 16Z" fill="url(#paint3_linear_11_3904)"/>
<defs>
<filter id="filter0_f_11_3904" x="-1.04606" y="9.10055" width="13.9772" height="15.1905" filterUnits="userSpaceOnUse" color-interpolation-filters="sRGB">
<feFlood flood-opacity="0" result="BackgroundImageFix"/>
<feBlend mode="normal" in="SourceGraphic" in2="BackgroundImageFix" result="shape"/>
<feGaussianBlur stdDeviation="1.23" result="effect1_foregroundBlur_11_3904"/>
</filter>
<filter id="filter1_f_11_3904" x="-3.18934" y="-10.9594" width="35.2601" height="35.5125" filterUnits="userSpaceOnUse" color-interpolation-filters="sRGB">
<feFlood flood-opacity="0" result="BackgroundImageFix"/>
<feBlend mode="normal" in="SourceGraphic" in2="BackgroundImageFix" result="shape"/>
<feGaussianBlur stdDeviation="5.9455" result="effect1_foregroundBlur_11_3904"/>
</filter>
<filter id="filter2_f_11_3904" x="-4.28088" y="5.78162" width="32.224" height="35.7507" filterUnits="userSpaceOnUse" color-interpolation-filters="sRGB">
<feFlood flood-opacity="0" result="BackgroundImageFix"/>
<feBlend mode="normal" in="SourceGraphic" in2="BackgroundImageFix" result="shape"/>
<feGaussianBlur stdDeviation="5.0545" result="effect1_foregroundBlur_11_3904"/>
</filter>
<filter id="filter3_f_11_3904" x="-4.28088" y="5.78162" width="32.224" height="35.7507" filterUnits="userSpaceOnUse" color-interpolation-filters="sRGB">
<feFlood flood-opacity="0" result="BackgroundImageFix"/>
<feBlend mode="normal" in="SourceGraphic" in2="BackgroundImageFix" result="shape"/>
<feGaussianBlur stdDeviation="5.0545" result="effect1_foregroundBlur_11_3904"/>
</filter>
<filter id="filter4_f_11_3904" x="-3.9945" y="6.86854" width="32.3092" height="32.8552" filterUnits="userSpaceOnUse" color-interpolation-filters="sRGB">
<feFlood flood-opacity="0" result="BackgroundImageFix"/>
<feBlend mode="normal" in="SourceGraphic" in2="BackgroundImageFix" result="shape"/>
<feGaussianBlur stdDeviation="5.0545" result="effect1_foregroundBlur_11_3904"/>
</filter>
<filter id="filter5_f_11_3904" x="11.4848" y="-1.24858" width="30.5019" height="30.0836" filterUnits="userSpaceOnUse" color-interpolation-filters="sRGB">
<feFlood flood-opacity="0" result="BackgroundImageFix"/>
<feBlend mode="normal" in="SourceGraphic" in2="BackgroundImageFix" result="shape"/>
<feGaussianBlur stdDeviation="4.803" result="effect1_foregroundBlur_11_3904"/>
</filter>
<filter id="filter6_f_11_3904" x="-9.22016" y="-2.34858" width="30.7387" height="30.9301" filterUnits="userSpaceOnUse" color-interpolation-filters="sRGB">
<feFlood flood-opacity="0" result="BackgroundImageFix"/>
<feBlend mode="normal" in="SourceGraphic" in2="BackgroundImageFix" result="shape"/>
<feGaussianBlur stdDeviation="4.353" result="effect1_foregroundBlur_11_3904"/>
</filter>
<filter id="filter7_f_11_3904" x="5.50381" y="1.17422" width="30.251" height="29.8396" filterUnits="userSpaceOnUse" color-interpolation-filters="sRGB">
<feFlood flood-opacity="0" result="BackgroundImageFix"/>
<feBlend mode="normal" in="SourceGraphic" in2="BackgroundImageFix" result="shape"/>
<feGaussianBlur stdDeviation="3.8875" result="effect1_foregroundBlur_11_3904"/>
</filter>
<filter id="filter8_f_11_3904" x="7.50504" y="-2.36423" width="22.6659" height="21.2934" filterUnits="userSpaceOnUse" color-interpolation-filters="sRGB">
<feFlood flood-opacity="0" result="BackgroundImageFix"/>
<feBlend mode="normal" in="SourceGraphic" in2="BackgroundImageFix" result="shape"/>
<feGaussianBlur stdDeviation="3.4785" result="effect1_foregroundBlur_11_3904"/>
</filter>
<filter id="filter9_f_11_3904" x="-1.03713" y="-5.88967" width="26.322" height="25.8448" filterUnits="userSpaceOnUse" color-interpolation-filters="sRGB">
<feFlood flood-opacity="0" result="BackgroundImageFix"/>
<feBlend mode="normal" in="SourceGraphic" in2="BackgroundImageFix" result="shape"/>
<feGaussianBlur stdDeviation="2.938" result="effect1_foregroundBlur_11_3904"/>
</filter>
<filter id="filter10_f_11_3904" x="-1.15679" y="9.65278" width="22.6726" height="21.4635" filterUnits="userSpaceOnUse" color-interpolation-filters="sRGB">
<feFlood flood-opacity="0" result="BackgroundImageFix"/>
<feBlend mode="normal" in="SourceGraphic" in2="BackgroundImageFix" result="shape"/>
<feGaussianBlur stdDeviation="3.6365" result="effect1_foregroundBlur_11_3904"/>
</filter>
<linearGradient id="paint0_linear_11_3904" x1="11.676" y1="19.36" x2="22.0471" y2="10.6166" gradientUnits="userSpaceOnUse">
<stop stop-color="#4893FC"/>
<stop offset="0.27" stop-color="#4893FC"/>
<stop offset="0.777" stop-color="#969DFF"/>
<stop offset="1" stop-color="#BD99FE"/>
</linearGradient>
<linearGradient id="paint1_linear_11_3904" x1="70.2425" y1="17.4953" x2="84.0136" y2="18.1908" gradientUnits="userSpaceOnUse">
<stop stop-color="#0064E1"/>
<stop offset="0.4" stop-color="#0064E1"/>
<stop offset="0.83" stop-color="#0073EE"/>
<stop offset="1" stop-color="#0082FB"/>
</linearGradient>
<linearGradient id="paint2_linear_11_3904" x1="69.1298" y1="19.0255" x2="69.1298" y2="13.9483" gradientUnits="userSpaceOnUse">
<stop stop-color="#0082FB"/>
<stop offset="1" stop-color="#0064E0"/>
</linearGradient>
<linearGradient id="paint3_linear_11_3904" x1="116" y1="9.75" x2="116" y2="22.25" gradientUnits="userSpaceOnUse">
<stop stop-color="#D14671"/>
<stop offset="1" stop-color="#892C6C"/>
</linearGradient>
<clipPath id="clip0_11_3904">
<rect width="20" height="20" fill="white" transform="translate(6 6)"/>
</clipPath>
<clipPath id="clip1_11_3904">
<rect width="20" height="14" fill="white" transform="translate(26 9)"/>
</clipPath>
<clipPath id="clip2_11_3904">
<rect width="20" height="20" fill="white" transform="translate(46 6)"/>
</clipPath>
<clipPath id="clip3_11_3904">
<rect width="20" height="13.2842" fill="white" transform="translate(66 9.35791)"/>
</clipPath>
</defs>
</svg>
