<svg width="24" height="24" viewBox="0 0 24 24" fill="none" xmlns="http://www.w3.org/2000/svg">
<path d="M14.031 14.0307L12.3107 15.7501L14.031 17.4695C14.1007 17.5392 14.156 17.6219 14.1937 17.7129C14.2314 17.804 14.2508 17.9016 14.2508 18.0001C14.2508 18.0986 14.2314 18.1962 14.1937 18.2873C14.156 18.3783 14.1007 18.461 14.031 18.5307C13.9614 18.6004 13.8786 18.6557 13.7876 18.6934C13.6965 18.7311 13.599 18.7505 13.5004 18.7505C13.4019 18.7505 13.3043 18.7311 13.2132 18.6934C13.1222 18.6557 13.0395 18.6004 12.9698 18.5307L12.3754 17.9354L10.1901 20.1217C9.62675 20.683 8.86385 20.9983 8.06854 20.9983C7.27323 20.9983 6.51034 20.683 5.94698 20.1217L5.44354 19.6173L2.78104 22.2807C2.71136 22.3504 2.62863 22.4057 2.53759 22.4434C2.44654 22.4811 2.34896 22.5005 2.25042 22.5005C2.15187 22.5005 2.05429 22.4811 1.96324 22.4434C1.8722 22.4057 1.78947 22.3504 1.71979 22.2807C1.65011 22.211 1.59483 22.1283 1.55712 22.0373C1.51941 21.9462 1.5 21.8486 1.5 21.7501C1.5 21.6516 1.51941 21.554 1.55712 21.4629C1.59483 21.3719 1.65011 21.2892 1.71979 21.2195L4.38323 18.557L3.87885 18.0535C3.60021 17.775 3.37917 17.4442 3.22836 17.0802C3.07755 16.7162 2.99993 16.326 2.99993 15.932C2.99993 15.538 3.07755 15.1478 3.22836 14.7838C3.37917 14.4197 3.60021 14.089 3.87885 13.8104L6.0651 11.6251L5.46979 11.0307C5.32906 10.89 5.25 10.6991 5.25 10.5001C5.25 10.3011 5.32906 10.1102 5.46979 9.96948C5.61052 9.82875 5.80139 9.74969 6.00042 9.74969C6.19944 9.74968 6.39031 9.82875 6.53104 9.96948L8.25042 11.6898L9.96979 9.96948C10.1105 9.82875 10.3014 9.74969 10.5004 9.74969C10.6994 9.74969 10.8903 9.82875 11.031 9.96948C11.1718 10.1102 11.2508 10.3011 11.2508 10.5001C11.2508 10.6991 11.1718 10.89 11.031 11.0307L9.31073 12.7501L11.2504 14.6898L12.9698 12.9695C13.1105 12.8287 13.3014 12.7497 13.5004 12.7497C13.6994 12.7497 13.8903 12.8287 14.031 12.9695C14.1718 13.1102 14.2508 13.3011 14.2508 13.5001C14.2508 13.6991 14.1718 13.89 14.031 14.0307ZM22.281 1.71948C22.2114 1.64974 22.1287 1.59443 22.0376 1.55668C21.9466 1.51894 21.849 1.49951 21.7504 1.49951C21.6519 1.49951 21.5543 1.51894 21.4632 1.55668C21.3722 1.59443 21.2894 1.64974 21.2198 1.71948L18.5573 4.38291L18.0539 3.87854C17.4906 3.31693 16.7277 3.00155 15.9323 3.00155C15.1369 3.00155 14.374 3.31693 13.8107 3.87854L11.6254 6.06479L11.031 5.46948C10.8903 5.32875 10.6994 5.24968 10.5004 5.24968C10.3014 5.24968 10.1105 5.32875 9.96979 5.46948C9.82906 5.61021 9.75 5.80108 9.75 6.0001C9.75 6.19912 9.82906 6.39 9.96979 6.53073L17.4698 14.0307C17.5395 14.1004 17.6222 14.1557 17.7132 14.1934C17.8043 14.2311 17.9019 14.2505 18.0004 14.2505C18.099 14.2505 18.1965 14.2311 18.2876 14.1934C18.3786 14.1557 18.4614 14.1004 18.531 14.0307C18.6007 13.961 18.656 13.8783 18.6937 13.7873C18.7314 13.6962 18.7508 13.5986 18.7508 13.5001C18.7508 13.4016 18.7314 13.304 18.6937 13.2129C18.656 13.1219 18.6007 13.0392 18.531 12.9695L17.9357 12.3751L20.122 10.1898C20.4006 9.91121 20.6217 9.58046 20.7725 9.21644C20.9233 8.85241 21.0009 8.46225 21.0009 8.06823C21.0009 7.6742 20.9233 7.28404 20.7725 6.92002C20.6217 6.556 20.4006 6.22525 20.122 5.94666L19.6176 5.44323L22.281 2.78073C22.3508 2.71107 22.4061 2.62836 22.4438 2.53731C22.4816 2.44626 22.501 2.34866 22.501 2.2501C22.501 2.15154 22.4816 2.05395 22.4438 1.9629C22.4061 1.87185 22.3508 1.78913 22.281 1.71948Z" fill="#F8F8F2"/>
</svg>
