<svg width="918" height="143" viewBox="0 0 918 143" fill="none" xmlns="http://www.w3.org/2000/svg">
<mask id="path-1-outside-1_598_3951" maskUnits="userSpaceOnUse" x="-0.609375" y="-0.279785" width="919" height="143" fill="black">
<rect fill="white" x="-0.609375" y="-0.279785" width="919" height="143"/>
<path d="M3.95063 4.60021H27.3106L56.1106 112.76L86.0306 4.60021H115.151L145.231 112.6L145.391 112.92L173.871 4.60021H197.231L160.271 137.72H130.511L101.071 31.0002L100.751 29.5602L100.271 31.0002L70.8306 137.72H41.0706L3.95063 4.60021ZM301.268 81.0802H236.148V137.72H213.588V4.60021H236.148V61.2402H301.268V4.60021H323.828V137.72H301.268V81.0802ZM408.201 139.32C395.187 139.32 383.934 136.6 374.441 131.16C365.054 125.614 357.907 118.094 353.001 108.6C348.094 99.1069 345.641 88.4935 345.641 76.7602V65.4002C345.641 53.6669 348.094 43.1069 353.001 33.7202C357.907 24.2269 365.054 16.7602 374.441 11.3202C383.934 5.77354 395.187 3.0002 408.201 3.0002C421.214 3.0002 432.414 5.77354 441.801 11.3202C451.187 16.7602 458.281 24.2269 463.081 33.7202C467.987 43.1069 470.441 53.6669 470.441 65.4002V76.7602C470.441 88.4935 467.987 99.1069 463.081 108.6C458.174 118.094 451.027 125.614 441.641 131.16C432.254 136.6 421.107 139.32 408.201 139.32ZM368.841 78.2002C368.841 85.9869 370.227 92.9735 373.001 99.1602C375.881 105.347 380.254 110.254 386.121 113.88C392.094 117.507 399.454 119.32 408.201 119.32C416.947 119.32 424.254 117.507 430.121 113.88C435.987 110.254 440.307 105.347 443.081 99.1602C445.961 92.9735 447.401 85.9869 447.401 78.2002V63.9602C447.401 56.2802 445.961 49.4002 443.081 43.3202C440.307 37.1335 435.987 32.2269 430.121 28.6002C424.254 24.8669 416.947 23.0002 408.201 23.0002C399.454 23.0002 392.094 24.8135 386.121 28.4402C380.254 32.0669 375.881 36.9735 373.001 43.1602C370.227 49.3469 368.841 56.2269 368.841 63.8002V78.2002ZM549.138 139.32C536.125 139.32 524.871 136.6 515.378 131.16C505.991 125.614 498.845 118.094 493.938 108.6C489.031 99.1069 486.578 88.4935 486.578 76.7602V65.4002C486.578 53.6669 489.031 43.1069 493.938 33.7202C498.845 24.2269 505.991 16.7602 515.378 11.3202C524.871 5.77354 536.125 3.0002 549.138 3.0002C562.151 3.0002 573.351 5.77354 582.738 11.3202C592.125 16.7602 599.218 24.2269 604.018 33.7202C608.925 43.1069 611.378 53.6669 611.378 65.4002V76.7602C611.378 88.4935 608.925 99.1069 604.018 108.6C599.111 118.094 591.965 125.614 582.578 131.16C573.191 136.6 562.045 139.32 549.138 139.32ZM509.778 78.2002C509.778 85.9869 511.165 92.9735 513.938 99.1602C516.818 105.347 521.191 110.254 527.058 113.88C533.031 117.507 540.391 119.32 549.138 119.32C557.885 119.32 565.191 117.507 571.058 113.88C576.925 110.254 581.245 105.347 584.018 99.1602C586.898 92.9735 588.338 85.9869 588.338 78.2002V63.9602C588.338 56.2802 586.898 49.4002 584.018 43.3202C581.245 37.1335 576.925 32.2269 571.058 28.6002C565.191 24.8669 557.885 23.0002 549.138 23.0002C540.391 23.0002 533.031 24.8135 527.058 28.4402C521.191 32.0669 516.818 36.9735 513.938 43.1602C511.165 49.3469 509.778 56.2269 509.778 63.8002V78.2002ZM633.276 4.60021H698.556C730.129 4.60021 745.916 19.2669 745.916 48.6002V49.5602C745.916 64.4935 742.022 75.5869 734.236 82.8402C726.449 90.0935 714.556 93.7202 698.556 93.7202H655.836V137.72H633.276V4.60021ZM698.076 74.2002C706.822 74.2002 713.116 72.3869 716.956 68.7602C720.796 65.1335 722.716 59.3202 722.716 51.3202V46.5202C722.716 38.7335 720.796 33.0802 716.956 29.5602C713.116 26.0402 706.822 24.2802 698.076 24.2802H655.836V74.2002H698.076ZM816.518 139.32C796.571 139.32 781.798 135.48 772.198 127.8C762.705 120.014 757.958 108.494 757.958 93.2402V90.2002H780.998V94.6802C780.998 103.64 783.825 110.094 789.478 114.04C795.131 117.987 804.305 119.96 816.998 119.96C827.558 119.96 835.238 118.52 840.038 115.64C844.945 112.76 847.398 108.227 847.398 102.04V100.6C847.398 96.4402 846.545 93.1869 844.838 90.8402C843.131 88.3869 840.465 86.4135 836.838 84.9202C833.211 83.4269 828.145 82.0402 821.638 80.7602L795.238 74.6802C772.945 69.5602 761.798 57.9335 761.798 39.8002C761.798 27.8535 766.225 18.7335 775.078 12.4402C783.931 6.14687 796.785 3.0002 813.638 3.0002C831.238 3.0002 844.518 6.46687 853.478 13.4002C862.545 20.2269 867.078 30.1469 867.078 43.1602V46.3602H844.198V42.5202C844.198 35.4802 841.798 30.3602 836.998 27.1602C832.305 23.9602 824.571 22.3602 813.798 22.3602C804.091 22.3602 796.838 23.6935 792.038 26.3602C787.345 28.9202 784.998 32.8669 784.998 38.2002V39.1602C784.998 44.0669 786.971 47.9069 790.918 50.6802C794.865 53.4535 800.731 55.5869 808.518 57.0802L835.238 63.0002C846.971 65.4535 855.771 69.4535 861.638 75.0002C867.505 80.5469 870.438 88.7069 870.438 99.4802C870.438 113.454 866.171 123.587 857.638 129.88C849.105 136.174 835.398 139.32 816.518 139.32ZM912.509 4.60021L911.069 97.7202H892.189L890.909 4.60021H912.509ZM888.669 126.68C888.669 122.734 889.896 119.587 892.349 117.24C894.803 114.787 897.896 113.56 901.629 113.56C905.256 113.56 908.296 114.787 910.749 117.24C913.203 119.587 914.429 122.734 914.429 126.68C914.429 130.414 913.203 133.454 910.749 135.8C908.296 138.147 905.256 139.32 901.629 139.32C897.896 139.32 894.803 138.147 892.349 135.8C889.896 133.454 888.669 130.414 888.669 126.68Z"/>
</mask>
<path d="M3.95063 4.60021H27.3106L56.1106 112.76L86.0306 4.60021H115.151L145.231 112.6L145.391 112.92L173.871 4.60021H197.231L160.271 137.72H130.511L101.071 31.0002L100.751 29.5602L100.271 31.0002L70.8306 137.72H41.0706L3.95063 4.60021ZM301.268 81.0802H236.148V137.72H213.588V4.60021H236.148V61.2402H301.268V4.60021H323.828V137.72H301.268V81.0802ZM408.201 139.32C395.187 139.32 383.934 136.6 374.441 131.16C365.054 125.614 357.907 118.094 353.001 108.6C348.094 99.1069 345.641 88.4935 345.641 76.7602V65.4002C345.641 53.6669 348.094 43.1069 353.001 33.7202C357.907 24.2269 365.054 16.7602 374.441 11.3202C383.934 5.77354 395.187 3.0002 408.201 3.0002C421.214 3.0002 432.414 5.77354 441.801 11.3202C451.187 16.7602 458.281 24.2269 463.081 33.7202C467.987 43.1069 470.441 53.6669 470.441 65.4002V76.7602C470.441 88.4935 467.987 99.1069 463.081 108.6C458.174 118.094 451.027 125.614 441.641 131.16C432.254 136.6 421.107 139.32 408.201 139.32ZM368.841 78.2002C368.841 85.9869 370.227 92.9735 373.001 99.1602C375.881 105.347 380.254 110.254 386.121 113.88C392.094 117.507 399.454 119.32 408.201 119.32C416.947 119.32 424.254 117.507 430.121 113.88C435.987 110.254 440.307 105.347 443.081 99.1602C445.961 92.9735 447.401 85.9869 447.401 78.2002V63.9602C447.401 56.2802 445.961 49.4002 443.081 43.3202C440.307 37.1335 435.987 32.2269 430.121 28.6002C424.254 24.8669 416.947 23.0002 408.201 23.0002C399.454 23.0002 392.094 24.8135 386.121 28.4402C380.254 32.0669 375.881 36.9735 373.001 43.1602C370.227 49.3469 368.841 56.2269 368.841 63.8002V78.2002ZM549.138 139.32C536.125 139.32 524.871 136.6 515.378 131.16C505.991 125.614 498.845 118.094 493.938 108.6C489.031 99.1069 486.578 88.4935 486.578 76.7602V65.4002C486.578 53.6669 489.031 43.1069 493.938 33.7202C498.845 24.2269 505.991 16.7602 515.378 11.3202C524.871 5.77354 536.125 3.0002 549.138 3.0002C562.151 3.0002 573.351 5.77354 582.738 11.3202C592.125 16.7602 599.218 24.2269 604.018 33.7202C608.925 43.1069 611.378 53.6669 611.378 65.4002V76.7602C611.378 88.4935 608.925 99.1069 604.018 108.6C599.111 118.094 591.965 125.614 582.578 131.16C573.191 136.6 562.045 139.32 549.138 139.32ZM509.778 78.2002C509.778 85.9869 511.165 92.9735 513.938 99.1602C516.818 105.347 521.191 110.254 527.058 113.88C533.031 117.507 540.391 119.32 549.138 119.32C557.885 119.32 565.191 117.507 571.058 113.88C576.925 110.254 581.245 105.347 584.018 99.1602C586.898 92.9735 588.338 85.9869 588.338 78.2002V63.9602C588.338 56.2802 586.898 49.4002 584.018 43.3202C581.245 37.1335 576.925 32.2269 571.058 28.6002C565.191 24.8669 557.885 23.0002 549.138 23.0002C540.391 23.0002 533.031 24.8135 527.058 28.4402C521.191 32.0669 516.818 36.9735 513.938 43.1602C511.165 49.3469 509.778 56.2269 509.778 63.8002V78.2002ZM633.276 4.60021H698.556C730.129 4.60021 745.916 19.2669 745.916 48.6002V49.5602C745.916 64.4935 742.022 75.5869 734.236 82.8402C726.449 90.0935 714.556 93.7202 698.556 93.7202H655.836V137.72H633.276V4.60021ZM698.076 74.2002C706.822 74.2002 713.116 72.3869 716.956 68.7602C720.796 65.1335 722.716 59.3202 722.716 51.3202V46.5202C722.716 38.7335 720.796 33.0802 716.956 29.5602C713.116 26.0402 706.822 24.2802 698.076 24.2802H655.836V74.2002H698.076ZM816.518 139.32C796.571 139.32 781.798 135.48 772.198 127.8C762.705 120.014 757.958 108.494 757.958 93.2402V90.2002H780.998V94.6802C780.998 103.64 783.825 110.094 789.478 114.04C795.131 117.987 804.305 119.96 816.998 119.96C827.558 119.96 835.238 118.52 840.038 115.64C844.945 112.76 847.398 108.227 847.398 102.04V100.6C847.398 96.4402 846.545 93.1869 844.838 90.8402C843.131 88.3869 840.465 86.4135 836.838 84.9202C833.211 83.4269 828.145 82.0402 821.638 80.7602L795.238 74.6802C772.945 69.5602 761.798 57.9335 761.798 39.8002C761.798 27.8535 766.225 18.7335 775.078 12.4402C783.931 6.14687 796.785 3.0002 813.638 3.0002C831.238 3.0002 844.518 6.46687 853.478 13.4002C862.545 20.2269 867.078 30.1469 867.078 43.1602V46.3602H844.198V42.5202C844.198 35.4802 841.798 30.3602 836.998 27.1602C832.305 23.9602 824.571 22.3602 813.798 22.3602C804.091 22.3602 796.838 23.6935 792.038 26.3602C787.345 28.9202 784.998 32.8669 784.998 38.2002V39.1602C784.998 44.0669 786.971 47.9069 790.918 50.6802C794.865 53.4535 800.731 55.5869 808.518 57.0802L835.238 63.0002C846.971 65.4535 855.771 69.4535 861.638 75.0002C867.505 80.5469 870.438 88.7069 870.438 99.4802C870.438 113.454 866.171 123.587 857.638 129.88C849.105 136.174 835.398 139.32 816.518 139.32ZM912.509 4.60021L911.069 97.7202H892.189L890.909 4.60021H912.509ZM888.669 126.68C888.669 122.734 889.896 119.587 892.349 117.24C894.803 114.787 897.896 113.56 901.629 113.56C905.256 113.56 908.296 114.787 910.749 117.24C913.203 119.587 914.429 122.734 914.429 126.68C914.429 130.414 913.203 133.454 910.749 135.8C908.296 138.147 905.256 139.32 901.629 139.32C897.896 139.32 894.803 138.147 892.349 135.8C889.896 133.454 888.669 130.414 888.669 126.68Z" fill="#230912"/>
<path d="M3.95063 4.60021V1.60021H-0.000362992L1.06087 5.40601L3.95063 4.60021ZM27.3106 4.60021L30.2096 3.82829L29.6163 1.60021H27.3106V4.60021ZM56.1106 112.76L53.2116 113.532L56.0554 124.212L59.002 113.56L56.1106 112.76ZM86.0306 4.60021V1.60021H83.7478L83.1392 3.80037L86.0306 4.60021ZM115.151 4.60021L118.041 3.79529L117.429 1.60021H115.151V4.60021ZM145.231 112.6L142.341 113.405L142.418 113.683L142.547 113.942L145.231 112.6ZM145.391 112.92L142.707 114.262L146.268 121.383L148.292 113.683L145.391 112.92ZM173.871 4.60021V1.60021H171.557L170.969 3.83736L173.871 4.60021ZM197.231 4.60021L200.121 5.40279L201.177 1.60021H197.231V4.60021ZM160.271 137.72V140.72H162.551L163.161 138.523L160.271 137.72ZM130.511 137.72L127.619 138.518L128.226 140.72H130.511V137.72ZM101.071 31.0002L98.1421 31.651L98.1585 31.725L98.1786 31.798L101.071 31.0002ZM100.751 29.5602L103.679 28.9094L101.33 18.3364L97.9046 28.6115L100.751 29.5602ZM100.271 31.0002L97.4246 30.0515L97.3996 30.1264L97.3787 30.2024L100.271 31.0002ZM70.8306 137.72V140.72H73.1151L73.7226 138.518L70.8306 137.72ZM41.0706 137.72L38.1809 138.526L38.7927 140.72H41.0706V137.72ZM3.95063 4.60021V7.60021H27.3106V4.60021V1.60021H3.95063V4.60021ZM27.3106 4.60021L24.4116 5.37213L53.2116 113.532L56.1106 112.76L59.0096 111.988L30.2096 3.82829L27.3106 4.60021ZM56.1106 112.76L59.002 113.56L88.922 5.40005L86.0306 4.60021L83.1392 3.80037L53.2192 111.96L56.1106 112.76ZM86.0306 4.60021V7.60021H115.151V4.60021V1.60021H86.0306V4.60021ZM115.151 4.60021L112.261 5.40513L142.341 113.405L145.231 112.6L148.121 111.795L118.041 3.79529L115.151 4.60021ZM145.231 112.6L142.547 113.942L142.707 114.262L145.391 112.92L148.074 111.579L147.914 111.259L145.231 112.6ZM145.391 112.92L148.292 113.683L176.772 5.36306L173.871 4.60021L170.969 3.83736L142.489 112.157L145.391 112.92ZM173.871 4.60021V7.60021H197.231V4.60021V1.60021H173.871V4.60021ZM197.231 4.60021L194.34 3.79764L157.38 136.918L160.271 137.72L163.161 138.523L200.121 5.40279L197.231 4.60021ZM160.271 137.72V134.72H130.511V137.72V140.72H160.271V137.72ZM130.511 137.72L133.403 136.922L103.963 30.2024L101.071 31.0002L98.1786 31.798L127.619 138.518L130.511 137.72ZM101.071 31.0002L103.999 30.3494L103.679 28.9094L100.751 29.5602L97.8221 30.211L98.1421 31.651L101.071 31.0002ZM100.751 29.5602L97.9046 28.6115L97.4246 30.0515L100.271 31.0002L103.117 31.9489L103.597 30.5089L100.751 29.5602ZM100.271 31.0002L97.3787 30.2024L67.9387 136.922L70.8306 137.72L73.7226 138.518L103.163 31.798L100.271 31.0002ZM70.8306 137.72V134.72H41.0706V137.72V140.72H70.8306V137.72ZM41.0706 137.72L43.9604 136.914L6.84038 3.79441L3.95063 4.60021L1.06087 5.40601L38.1809 138.526L41.0706 137.72ZM301.268 81.0802H304.268V78.0802H301.268V81.0802ZM236.148 81.0802V78.0802H233.148V81.0802H236.148ZM236.148 137.72V140.72H239.148V137.72H236.148ZM213.588 137.72H210.588V140.72H213.588V137.72ZM213.588 4.60021V1.60021H210.588V4.60021H213.588ZM236.148 4.60021H239.148V1.60021H236.148V4.60021ZM236.148 61.2402H233.148V64.2402H236.148V61.2402ZM301.268 61.2402V64.2402H304.268V61.2402H301.268ZM301.268 4.60021V1.60021H298.268V4.60021H301.268ZM323.828 4.60021H326.828V1.60021H323.828V4.60021ZM323.828 137.72V140.72H326.828V137.72H323.828ZM301.268 137.72H298.268V140.72H301.268V137.72ZM301.268 81.0802V78.0802H236.148V81.0802V84.0802H301.268V81.0802ZM236.148 81.0802H233.148V137.72H236.148H239.148V81.0802H236.148ZM236.148 137.72V134.72H213.588V137.72V140.72H236.148V137.72ZM213.588 137.72H216.588V4.60021H213.588H210.588V137.72H213.588ZM213.588 4.60021V7.60021H236.148V4.60021V1.60021H213.588V4.60021ZM236.148 4.60021H233.148V61.2402H236.148H239.148V4.60021H236.148ZM236.148 61.2402V64.2402H301.268V61.2402V58.2402H236.148V61.2402ZM301.268 61.2402H304.268V4.60021H301.268H298.268V61.2402H301.268ZM301.268 4.60021V7.60021H323.828V4.60021V1.60021H301.268V4.60021ZM323.828 4.60021H320.828V137.72H323.828H326.828V4.60021H323.828ZM323.828 137.72V134.72H301.268V137.72V140.72H323.828V137.72ZM301.268 137.72H304.268V81.0802H301.268H298.268V137.72H301.268ZM374.441 131.16L372.914 133.743L372.932 133.753L372.949 133.763L374.441 131.16ZM353.001 108.6L350.336 109.978L353.001 108.6ZM353.001 33.7202L355.659 35.11L355.666 35.0977L353.001 33.7202ZM374.441 11.3202L375.945 13.9158L375.954 13.9105L374.441 11.3202ZM441.801 11.3202L440.274 13.903L440.285 13.9094L440.296 13.9158L441.801 11.3202ZM463.081 33.7202L460.403 35.0739L460.413 35.092L460.422 35.11L463.081 33.7202ZM463.081 108.6L465.746 109.978L463.081 108.6ZM441.641 131.16L443.145 133.756L443.156 133.749L443.167 133.743L441.641 131.16ZM373.001 99.1602L370.263 100.387L370.272 100.407L370.281 100.426L373.001 99.1602ZM386.121 113.88L384.543 116.432L384.553 116.438L384.564 116.445L386.121 113.88ZM430.121 113.88L431.698 116.432L430.121 113.88ZM443.081 99.1602L440.361 97.8941L440.352 97.9135L440.343 97.933L443.081 99.1602ZM443.081 43.3202L440.343 44.5474L440.356 44.5761L440.369 44.6045L443.081 43.3202ZM430.121 28.6002L428.51 31.1312L428.527 31.1417L428.543 31.152L430.121 28.6002ZM386.121 28.4402L384.564 25.8758L384.553 25.8821L384.543 25.8884L386.121 28.4402ZM373.001 43.1602L370.281 41.8941L370.272 41.9135L370.263 41.933L373.001 43.1602ZM408.201 139.32V136.32C395.611 136.32 384.892 133.692 375.932 128.557L374.441 131.16L372.949 133.763C382.976 139.509 394.763 142.32 408.201 142.32V139.32ZM374.441 131.16L375.967 128.577C367.055 123.311 360.308 116.205 355.666 107.223L353.001 108.6L350.336 109.978C355.507 119.982 363.053 127.916 372.914 133.743L374.441 131.16ZM353.001 108.6L355.666 107.223C351 98.1958 348.641 88.0621 348.641 76.7602H345.641H342.641C342.641 88.925 345.188 100.018 350.336 109.978L353.001 108.6ZM345.641 76.7602H348.641V65.4002H345.641H342.641V76.7602H345.641ZM345.641 65.4002H348.641C348.641 54.0978 351 44.023 355.659 35.11L353.001 33.7202L350.342 32.3304C345.188 42.1907 342.641 53.2359 342.641 65.4002H345.641ZM353.001 33.7202L355.666 35.0977C360.305 26.1209 367.045 19.0734 375.945 13.9158L374.441 11.3202L372.936 8.72461C363.062 14.447 355.509 22.3328 350.336 32.3428L353.001 33.7202ZM374.441 11.3202L375.954 13.9105C384.91 8.67771 395.621 6.0002 408.201 6.0002V3.0002V0.000204086C394.754 0.000204086 382.958 2.86937 372.927 8.72993L374.441 11.3202ZM408.201 3.0002V6.0002C420.781 6.0002 431.432 8.67808 440.274 13.903L441.801 11.3202L443.327 8.73743C433.396 2.869 421.646 0.000204086 408.201 0.000204086V3.0002ZM441.801 11.3202L440.296 13.9158C449.191 19.0704 455.871 26.1103 460.403 35.0739L463.081 33.7202L465.758 32.3665C460.69 22.3435 453.184 14.45 443.305 8.72461L441.801 11.3202ZM463.081 33.7202L460.422 35.11C465.081 44.023 467.441 54.0978 467.441 65.4002H470.441H473.441C473.441 53.2359 470.894 42.1907 465.739 32.3304L463.081 33.7202ZM470.441 65.4002H467.441V76.7602H470.441H473.441V65.4002H470.441ZM470.441 76.7602H467.441C467.441 88.0621 465.081 98.1958 460.416 107.223L463.081 108.6L465.746 109.978C470.893 100.018 473.441 88.925 473.441 76.7602H470.441ZM463.081 108.6L460.416 107.223C455.773 116.205 449.026 123.311 440.114 128.577L441.641 131.16L443.167 133.743C453.028 127.916 460.575 119.982 465.746 109.978L463.081 108.6ZM441.641 131.16L440.136 128.565C431.287 133.693 420.68 136.32 408.201 136.32V139.32V142.32C421.535 142.32 433.221 139.507 443.145 133.756L441.641 131.16ZM368.841 78.2002H365.841C365.841 86.3473 367.293 93.7615 370.263 100.387L373.001 99.1602L375.738 97.933C373.162 92.1856 371.841 85.6264 371.841 78.2002H368.841ZM373.001 99.1602L370.281 100.426C373.411 107.15 378.184 112.501 384.543 116.432L386.121 113.88L387.698 111.328C382.324 108.006 378.35 103.544 375.72 97.8941L373.001 99.1602ZM386.121 113.88L384.564 116.445C391.111 120.42 399.042 122.32 408.201 122.32V119.32V116.32C399.866 116.32 393.077 114.594 387.678 111.316L386.121 113.88ZM408.201 119.32V122.32C417.357 122.32 425.246 120.421 431.698 116.432L430.121 113.88L428.543 111.328C423.262 114.593 416.538 116.32 408.201 116.32V119.32ZM430.121 113.88L431.698 116.432C438.066 112.496 442.795 107.132 445.818 100.387L443.081 99.1602L440.343 97.933C437.82 103.562 433.909 108.012 428.543 111.328L430.121 113.88ZM443.081 99.1602L445.8 100.426C448.889 93.7907 450.401 86.3626 450.401 78.2002H447.401H444.401C444.401 85.6112 443.032 92.1564 440.361 97.8941L443.081 99.1602ZM447.401 78.2002H450.401V63.9602H447.401H444.401V78.2002H447.401ZM447.401 63.9602H450.401C450.401 55.899 448.887 48.5706 445.792 42.0359L443.081 43.3202L440.369 44.6045C443.034 50.2298 444.401 56.6614 444.401 63.9602H447.401ZM443.081 43.3202L445.818 42.093C442.795 35.3487 438.066 29.9848 431.698 26.0484L430.121 28.6002L428.543 31.152C433.909 34.4689 437.82 38.9184 440.343 44.5474L443.081 43.3202ZM430.121 28.6002L431.731 26.0692C425.273 21.9595 417.371 20.0002 408.201 20.0002V23.0002V26.0002C416.523 26.0002 423.235 27.7743 428.51 31.1312L430.121 28.6002ZM408.201 23.0002V20.0002C399.042 20.0002 391.111 21.9006 384.564 25.8758L386.121 28.4402L387.678 31.0046C393.077 27.7265 399.866 26.0002 408.201 26.0002V23.0002ZM386.121 28.4402L384.543 25.8884C378.184 29.8195 373.411 35.1706 370.281 41.8941L373.001 43.1602L375.72 44.4263C378.35 38.7765 382.324 34.3143 387.698 30.992L386.121 28.4402ZM373.001 43.1602L370.263 41.933C367.298 48.5486 365.841 55.8536 365.841 63.8002H368.841H371.841C371.841 56.6002 373.157 50.1452 375.738 44.3874L373.001 43.1602ZM368.841 63.8002H365.841V78.2002H368.841H371.841V63.8002H368.841ZM515.378 131.16L513.852 133.743L513.869 133.753L513.887 133.763L515.378 131.16ZM493.938 108.6L491.273 109.978L493.938 108.6ZM493.938 33.7202L496.597 35.11L496.603 35.0977L493.938 33.7202ZM515.378 11.3202L516.882 13.9158L516.892 13.9105L515.378 11.3202ZM582.738 11.3202L581.212 13.903L581.223 13.9094L581.234 13.9158L582.738 11.3202ZM604.018 33.7202L601.341 35.0739L601.35 35.092L601.359 35.11L604.018 33.7202ZM604.018 108.6L606.683 109.978L604.018 108.6ZM582.578 131.16L584.082 133.756L584.093 133.749L584.104 133.743L582.578 131.16ZM513.938 99.1602L511.201 100.387L511.209 100.407L511.218 100.426L513.938 99.1602ZM527.058 113.88L525.481 116.432L525.491 116.438L525.501 116.445L527.058 113.88ZM571.058 113.88L572.636 116.432L571.058 113.88ZM584.018 99.1602L581.298 97.8941L581.289 97.9135L581.281 97.933L584.018 99.1602ZM584.018 43.3202L581.281 44.5474L581.293 44.5761L581.307 44.6045L584.018 43.3202ZM571.058 28.6002L569.448 31.1312L569.464 31.1417L569.481 31.152L571.058 28.6002ZM527.058 28.4402L525.501 25.8758L525.491 25.8821L525.481 25.8884L527.058 28.4402ZM513.938 43.1602L511.218 41.8941L511.209 41.9135L511.201 41.933L513.938 43.1602ZM549.138 139.32V136.32C536.549 136.32 525.83 133.692 516.87 128.557L515.378 131.16L513.887 133.763C523.913 139.509 535.701 142.32 549.138 142.32V139.32ZM515.378 131.16L516.904 128.577C507.993 123.311 501.246 116.205 496.603 107.223L493.938 108.6L491.273 109.978C496.444 119.982 503.99 127.916 513.852 133.743L515.378 131.16ZM493.938 108.6L496.603 107.223C491.938 98.1958 489.578 88.0621 489.578 76.7602H486.578H483.578C483.578 88.925 486.125 100.018 491.273 109.978L493.938 108.6ZM486.578 76.7602H489.578V65.4002H486.578H483.578V76.7602H486.578ZM486.578 65.4002H489.578C489.578 54.0978 491.938 44.023 496.597 35.11L493.938 33.7202L491.279 32.3304C486.125 42.1907 483.578 53.2359 483.578 65.4002H486.578ZM493.938 33.7202L496.603 35.0977C501.243 26.1209 507.983 19.0734 516.882 13.9158L515.378 11.3202L513.874 8.72461C504 14.447 496.447 22.3328 491.273 32.3428L493.938 33.7202ZM515.378 11.3202L516.892 13.9105C525.848 8.67771 536.558 6.0002 549.138 6.0002V3.0002V0.000204086C535.691 0.000204086 523.895 2.86937 513.865 8.72993L515.378 11.3202ZM549.138 3.0002V6.0002C561.719 6.0002 572.37 8.67808 581.212 13.903L582.738 11.3202L584.264 8.73743C574.333 2.869 562.584 0.000204086 549.138 0.000204086V3.0002ZM582.738 11.3202L581.234 13.9158C590.128 19.0704 596.809 26.1103 601.341 35.0739L604.018 33.7202L606.695 32.3665C601.628 22.3435 594.122 14.45 584.242 8.72461L582.738 11.3202ZM604.018 33.7202L601.359 35.11C606.019 44.023 608.378 54.0978 608.378 65.4002H611.378H614.378C614.378 53.2359 611.831 42.1907 606.677 32.3304L604.018 33.7202ZM611.378 65.4002H608.378V76.7602H611.378H614.378V65.4002H611.378ZM611.378 76.7602H608.378C608.378 88.0621 606.019 98.1958 601.353 107.223L604.018 108.6L606.683 109.978C611.831 100.018 614.378 88.925 614.378 76.7602H611.378ZM604.018 108.6L601.353 107.223C596.711 116.205 589.964 123.311 581.052 128.577L582.578 131.16L584.104 133.743C593.966 127.916 601.512 119.982 606.683 109.978L604.018 108.6ZM582.578 131.16L581.074 128.565C572.224 133.693 561.617 136.32 549.138 136.32V139.32V142.32C562.472 142.32 574.159 139.507 584.082 133.756L582.578 131.16ZM509.778 78.2002H506.778C506.778 86.3473 508.23 93.7615 511.201 100.387L513.938 99.1602L516.676 97.933C514.099 92.1856 512.778 85.6264 512.778 78.2002H509.778ZM513.938 99.1602L511.218 100.426C514.348 107.15 519.122 112.501 525.481 116.432L527.058 113.88L528.636 111.328C523.261 108.006 519.288 103.544 516.658 97.8941L513.938 99.1602ZM527.058 113.88L525.501 116.445C532.049 120.42 539.979 122.32 549.138 122.32V119.32V116.32C540.803 116.32 534.014 114.594 528.615 111.316L527.058 113.88ZM549.138 119.32V122.32C558.294 122.32 566.183 120.421 572.636 116.432L571.058 113.88L569.481 111.328C564.2 114.593 557.475 116.32 549.138 116.32V119.32ZM571.058 113.88L572.636 116.432C579.003 112.496 583.732 107.132 586.756 100.387L584.018 99.1602L581.281 97.933C578.757 103.562 574.846 108.012 569.481 111.328L571.058 113.88ZM584.018 99.1602L586.738 100.426C589.827 93.7907 591.338 86.3626 591.338 78.2002H588.338H585.338C585.338 85.6112 583.969 92.1564 581.298 97.8941L584.018 99.1602ZM588.338 78.2002H591.338V63.9602H588.338H585.338V78.2002H588.338ZM588.338 63.9602H591.338C591.338 55.899 589.825 48.5706 586.729 42.0359L584.018 43.3202L581.307 44.6045C583.972 50.2298 585.338 56.6614 585.338 63.9602H588.338ZM584.018 43.3202L586.756 42.093C583.732 35.3487 579.003 29.9848 572.636 26.0484L571.058 28.6002L569.481 31.152C574.846 34.4689 578.757 38.9184 581.281 44.5474L584.018 43.3202ZM571.058 28.6002L572.669 26.0692C566.211 21.9595 558.309 20.0002 549.138 20.0002V23.0002V26.0002C557.461 26.0002 564.172 27.7743 569.448 31.1312L571.058 28.6002ZM549.138 23.0002V20.0002C539.979 20.0002 532.049 21.9006 525.501 25.8758L527.058 28.4402L528.615 31.0046C534.014 27.7265 540.803 26.0002 549.138 26.0002V23.0002ZM527.058 28.4402L525.481 25.8884C519.122 29.8195 514.348 35.1706 511.218 41.8941L513.938 43.1602L516.658 44.4263C519.288 38.7765 523.261 34.3143 528.636 30.992L527.058 28.4402ZM513.938 43.1602L511.201 41.933C508.235 48.5486 506.778 55.8536 506.778 63.8002H509.778H512.778C512.778 56.6002 514.095 50.1452 516.676 44.3874L513.938 43.1602ZM509.778 63.8002H506.778V78.2002H509.778H512.778V63.8002H509.778ZM633.276 4.60021V1.60021H630.276V4.60021H633.276ZM734.236 82.8402L732.191 80.645V80.6451L734.236 82.8402ZM655.836 93.7202V90.7202H652.836V93.7202H655.836ZM655.836 137.72V140.72H658.836V137.72H655.836ZM633.276 137.72H630.276V140.72H633.276V137.72ZM716.956 29.5602L718.983 27.3487V27.3487L716.956 29.5602ZM655.836 24.2802V21.2802H652.836V24.2802H655.836ZM655.836 74.2002H652.836V77.2002H655.836V74.2002ZM633.276 4.60021V7.60021H698.556V4.60021V1.60021H633.276V4.60021ZM698.556 4.60021V7.60021C713.932 7.60021 724.906 11.1762 732.034 17.7981C739.12 24.3812 742.916 34.4549 742.916 48.6002H745.916H748.916C748.916 33.4122 744.818 21.4858 736.118 13.4024C727.458 5.35756 714.752 1.60021 698.556 1.60021V4.60021ZM745.916 48.6002H742.916V49.5602H745.916H748.916V48.6002H745.916ZM745.916 49.5602H742.916C742.916 64.0053 739.155 74.1576 732.191 80.645L734.236 82.8402L736.28 85.0354C744.889 77.0162 748.916 64.9818 748.916 49.5602H745.916ZM734.236 82.8402L732.191 80.6451C725.183 87.1731 714.17 90.7202 698.556 90.7202V93.7202V96.7202C714.941 96.7202 727.715 93.014 736.28 85.0354L734.236 82.8402ZM698.556 93.7202V90.7202H655.836V93.7202V96.7202H698.556V93.7202ZM655.836 93.7202H652.836V137.72H655.836H658.836V93.7202H655.836ZM655.836 137.72V134.72H633.276V137.72V140.72H655.836V137.72ZM633.276 137.72H636.276V4.60021H633.276H630.276V137.72H633.276ZM698.076 74.2002V77.2002C707.116 77.2002 714.35 75.3471 719.016 70.9413L716.956 68.7602L714.896 66.5792C711.881 69.4266 706.529 71.2002 698.076 71.2002V74.2002ZM716.956 68.7602L719.016 70.9413C723.705 66.5119 725.716 59.7238 725.716 51.3202H722.716H719.716C719.716 58.9167 717.886 63.7552 714.896 66.5792L716.956 68.7602ZM722.716 51.3202H725.716V46.5202H722.716H719.716V51.3202H722.716ZM722.716 46.5202H725.716C725.716 38.31 723.695 31.6682 718.983 27.3487L716.956 29.5602L714.928 31.7717C717.896 34.4922 719.716 39.1571 719.716 46.5202H722.716ZM716.956 29.5602L718.983 27.3487C714.318 23.073 707.099 21.2802 698.076 21.2802V24.2802V27.2802C706.546 27.2802 711.913 29.0074 714.928 31.7717L716.956 29.5602ZM698.076 24.2802V21.2802H655.836V24.2802V27.2802H698.076V24.2802ZM655.836 24.2802H652.836V74.2002H655.836H658.836V24.2802H655.836ZM655.836 74.2002V77.2002H698.076V74.2002V71.2002H655.836V74.2002ZM772.198 127.8L770.296 130.12L770.31 130.131L770.324 130.143L772.198 127.8ZM757.958 90.2002V87.2002H754.958V90.2002H757.958ZM780.998 90.2002H783.998V87.2002H780.998V90.2002ZM789.478 114.04L787.761 116.5L789.478 114.04ZM840.038 115.64L838.52 113.053L838.507 113.06L838.495 113.068L840.038 115.64ZM844.838 90.8402L842.375 92.5534L842.393 92.5793L842.412 92.6047L844.838 90.8402ZM836.838 84.9202L835.696 87.6942L836.838 84.9202ZM821.638 80.7602L820.965 83.6837L821.012 83.6945L821.059 83.7038L821.638 80.7602ZM795.238 74.6802L795.911 71.7567L795.91 71.7563L795.238 74.6802ZM853.478 13.4002L851.642 15.7728L851.658 15.7849L851.674 15.7968L853.478 13.4002ZM867.078 46.3602V49.3602H870.078V46.3602H867.078ZM844.198 46.3602H841.198V49.3602H844.198V46.3602ZM836.998 27.1602L835.308 29.6389L835.321 29.6477L835.334 29.6564L836.998 27.1602ZM792.038 26.3602L793.475 28.9939L793.485 28.9883L793.495 28.9827L792.038 26.3602ZM808.518 57.0802L809.167 54.1512L809.125 54.142L809.083 54.1339L808.518 57.0802ZM835.238 63.0002L834.589 65.9292L834.607 65.9331L834.624 65.9367L835.238 63.0002ZM857.638 129.88L855.857 127.466L857.638 129.88ZM816.518 139.32V136.32C796.859 136.32 782.898 132.518 774.072 125.458L772.198 127.8L770.324 130.143C780.698 138.442 796.284 142.32 816.518 142.32V139.32ZM772.198 127.8L774.101 125.481C765.467 118.399 760.958 107.833 760.958 93.2402H757.958H754.958C754.958 109.154 759.942 121.628 770.296 130.12L772.198 127.8ZM757.958 93.2402H760.958V90.2002H757.958H754.958V93.2402H757.958ZM757.958 90.2002V93.2002H780.998V90.2002V87.2002H757.958V90.2002ZM780.998 90.2002H777.998V94.6802H780.998H783.998V90.2002H780.998ZM780.998 94.6802H777.998C777.998 104.295 781.069 111.829 787.761 116.5L789.478 114.04L791.195 111.58C786.58 108.358 783.998 102.986 783.998 94.6802H780.998ZM789.478 114.04L787.761 116.5C794.19 120.988 804.137 122.96 816.998 122.96V119.96V116.96C804.473 116.96 796.073 114.986 791.195 111.58L789.478 114.04ZM816.998 119.96V122.96C827.696 122.96 836.06 121.526 841.582 118.213L840.038 115.64L838.495 113.068C834.416 115.515 827.42 116.96 816.998 116.96V119.96ZM840.038 115.64L841.557 118.227C847.474 114.754 850.398 109.178 850.398 102.04H847.398H844.398C844.398 107.276 842.415 110.766 838.52 113.053L840.038 115.64ZM847.398 102.04H850.398V100.6H847.398H844.398V102.04H847.398ZM847.398 100.6H850.398C850.398 96.0712 849.474 92.1144 847.264 89.0757L844.838 90.8402L842.412 92.6047C843.615 94.2594 844.398 96.8093 844.398 100.6H847.398ZM844.838 90.8402L847.301 89.127C845.177 86.0738 841.977 83.7916 837.98 82.1462L836.838 84.9202L835.696 87.6942C838.953 89.0355 841.086 90.7 842.375 92.5534L844.838 90.8402ZM836.838 84.9202L837.98 82.1462C834.09 80.5443 828.804 79.1124 822.217 77.8166L821.638 80.7602L821.059 83.7038C827.485 84.968 832.333 86.3095 835.696 87.6942L836.838 84.9202ZM821.638 80.7602L822.311 77.8367L795.911 71.7567L795.238 74.6802L794.565 77.6037L820.965 83.6837L821.638 80.7602ZM795.238 74.6802L795.91 71.7563C785.104 69.2746 777.356 65.2927 772.324 60.0441C767.355 54.8611 764.798 48.1987 764.798 39.8002H761.798H758.798C758.798 49.5351 761.815 57.7527 767.993 64.1964C774.107 70.5744 783.079 74.9658 794.567 77.6041L795.238 74.6802ZM761.798 39.8002H764.798C764.798 28.7118 768.842 20.5535 776.816 14.8854L775.078 12.4402L773.34 9.99503C763.607 16.9135 758.798 26.9953 758.798 39.8002H761.798ZM775.078 12.4402L776.816 14.8854C784.952 9.10234 797.087 6.0002 813.638 6.0002V3.0002V0.000204086C796.482 0.000204086 782.911 3.1914 773.34 9.99503L775.078 12.4402ZM813.638 3.0002V6.0002C830.92 6.0002 843.428 9.41661 851.642 15.7728L853.478 13.4002L855.314 11.0276C845.608 3.51714 831.557 0.000204086 813.638 0.000204086V3.0002ZM853.478 13.4002L851.674 15.7968C859.87 21.9683 864.078 30.9318 864.078 43.1602H867.078H870.078C870.078 29.362 865.219 18.4855 855.283 11.0036L853.478 13.4002ZM867.078 43.1602H864.078V46.3602H867.078H870.078V43.1602H867.078ZM867.078 46.3602V43.3602H844.198V46.3602V49.3602H867.078V46.3602ZM844.198 46.3602H847.198V42.5202H844.198H841.198V46.3602H844.198ZM844.198 42.5202H847.198C847.198 34.7297 844.487 28.5473 838.662 24.6641L836.998 27.1602L835.334 29.6564C839.109 32.1731 841.198 36.2307 841.198 42.5202H844.198ZM836.998 27.1602L838.688 24.6815C833.219 20.9524 824.715 19.3602 813.798 19.3602V22.3602V25.3602C824.428 25.3602 831.391 26.9681 835.308 29.6389L836.998 27.1602ZM813.798 22.3602V19.3602C803.919 19.3602 796.05 20.6995 790.581 23.7377L792.038 26.3602L793.495 28.9827C797.626 26.6876 804.264 25.3602 813.798 25.3602V22.3602ZM792.038 26.3602L790.602 23.7265C787.861 25.2214 785.67 27.1997 784.18 29.707C782.688 32.2147 781.998 35.0822 781.998 38.2002H784.998H787.998C787.998 35.9848 788.481 34.2124 789.337 32.7734C790.193 31.3341 791.522 30.059 793.475 28.9939L792.038 26.3602ZM784.998 38.2002H781.998V39.1602H784.998H787.998V38.2002H784.998ZM784.998 39.1602H781.998C781.998 45.0238 784.431 49.7883 789.193 53.1348L790.918 50.6802L792.643 48.2256C789.512 46.0255 787.998 43.1099 787.998 39.1602H784.998ZM790.918 50.6802L789.193 53.1348C793.641 56.2601 799.985 58.4983 807.953 60.0265L808.518 57.0802L809.083 54.1339C801.478 52.6754 796.089 50.6469 792.643 48.2256L790.918 50.6802ZM808.518 57.0802L807.869 60.0092L834.589 65.9292L835.238 63.0002L835.887 60.0712L809.167 54.1512L808.518 57.0802ZM835.238 63.0002L834.624 65.9367C846.06 68.3279 854.264 72.1566 859.577 77.1802L861.638 75.0002L863.699 72.8203C857.279 66.7505 847.883 62.5792 835.852 60.0637L835.238 63.0002ZM861.638 75.0002L859.577 77.1802C864.663 81.9891 867.438 89.2443 867.438 99.4802H870.438H873.438C873.438 88.1694 870.346 79.1047 863.699 72.8203L861.638 75.0002ZM870.438 99.4802H867.438C867.438 112.832 863.392 121.909 855.857 127.466L857.638 129.88L859.419 132.295C868.951 125.265 873.438 114.075 873.438 99.4802H870.438ZM857.638 129.88L855.857 127.466C848.108 133.181 835.199 136.32 816.518 136.32V139.32V142.32C835.598 142.32 850.102 139.166 859.419 132.295L857.638 129.88ZM912.509 4.60021L915.509 4.6466L915.556 1.60021H912.509V4.60021ZM911.069 97.7202V100.72H914.023L914.069 97.7666L911.069 97.7202ZM892.189 97.7202L889.19 97.7615L889.23 100.72H892.189V97.7202ZM890.909 4.60021V1.60021H887.868L887.91 4.64145L890.909 4.60021ZM892.349 117.24L894.423 119.408L894.447 119.385L894.471 119.362L892.349 117.24ZM910.749 117.24L908.628 119.362L908.652 119.385L908.676 119.408L910.749 117.24ZM910.749 135.8L912.823 137.968L910.749 135.8ZM892.349 135.8L890.276 137.968L892.349 135.8ZM912.509 4.60021L909.51 4.55383L908.07 97.6738L911.069 97.7202L914.069 97.7666L915.509 4.6466L912.509 4.60021ZM911.069 97.7202V94.7202H892.189V97.7202V100.72H911.069V97.7202ZM892.189 97.7202L895.189 97.679L893.909 4.55898L890.909 4.60021L887.91 4.64145L889.19 97.7615L892.189 97.7202ZM890.909 4.60021V7.60021H912.509V4.60021V1.60021H890.909V4.60021ZM888.669 126.68H891.669C891.669 123.407 892.659 121.096 894.423 119.408L892.349 117.24L890.276 115.072C887.134 118.078 885.669 122.06 885.669 126.68H888.669ZM892.349 117.24L894.471 119.362C896.316 117.516 898.625 116.56 901.629 116.56V113.56V110.56C897.167 110.56 893.29 112.057 890.228 115.119L892.349 117.24ZM901.629 113.56V116.56C904.501 116.56 906.765 117.499 908.628 119.362L910.749 117.24L912.871 115.119C909.827 112.075 906.012 110.56 901.629 110.56V113.56ZM910.749 117.24L908.676 119.408C910.44 121.096 911.429 123.407 911.429 126.68H914.429H917.429C917.429 122.06 915.965 118.078 912.823 115.072L910.749 117.24ZM914.429 126.68H911.429C911.429 129.685 910.475 131.911 908.676 133.632L910.749 135.8L912.823 137.968C915.93 134.996 917.429 131.142 917.429 126.68H914.429ZM910.749 135.8L908.676 133.632C906.821 135.406 904.542 136.32 901.629 136.32V139.32V142.32C905.971 142.32 909.771 140.888 912.823 137.968L910.749 135.8ZM901.629 139.32V136.32C898.585 136.32 896.26 135.39 894.423 133.632L892.349 135.8L890.276 137.968C893.345 140.904 897.208 142.32 901.629 142.32V139.32ZM892.349 135.8L894.423 133.632C892.624 131.911 891.669 129.685 891.669 126.68H888.669H885.669C885.669 131.142 887.168 134.996 890.276 137.968L892.349 135.8Z" fill="#DC2828" mask="url(#path-1-outside-1_598_3951)"/>
</svg>
