<svg xmlns="http://www.w3.org/2000/svg" width="168" height="208" viewBox="0 0 168 208" fill="none">
<path d="M4 4V204H164V44L124 4H4Z" stroke="#f8f8f2" stroke-width="7"/>
<path d="M124 4V44H164" stroke="#f8f8f2" stroke-width="7"/>
<path d="M33 84.625C33 81.2766 34.3301 78.0654 36.6978 75.6978C39.0654 73.3301 42.2766 72 45.625 72H121.375C124.723 72 127.935 73.3301 130.302 75.6978C132.67 78.0654 134 81.2766 134 84.625V160.375C134 163.723 132.67 166.935 130.302 169.302C127.935 171.67 124.723 173 121.375 173H45.625C42.2766 173 39.0654 171.67 36.6978 169.302C34.3301 166.935 33 163.723 33 160.375V84.625ZM127.688 97.25H102.438V116.188H127.688V97.25ZM127.688 122.5H102.438V141.438H127.688V122.5ZM127.688 147.75H102.438V166.688H121.375C123.049 166.688 124.655 166.022 125.839 164.839C127.022 163.655 127.688 162.049 127.688 160.375V147.75ZM96.125 166.688V147.75H70.875V166.688H96.125ZM64.5625 166.688V147.75H39.3125V160.375C39.3125 162.049 39.9776 163.655 41.1614 164.839C42.3452 166.022 43.9508 166.688 45.625 166.688H64.5625ZM39.3125 141.438H64.5625V122.5H39.3125V141.438ZM39.3125 116.188H64.5625V97.25H39.3125V116.188ZM70.875 97.25V116.188H96.125V97.25H70.875ZM96.125 122.5H70.875V141.438H96.125V122.5Z" fill="#f8f8f2"/>
</svg>