<svg width="61" height="80" viewBox="0 0 61 80" fill="none" xmlns="http://www.w3.org/2000/svg">
<g clip-path="url(#clip0_1101_308)">
<path d="M38.2049 5V4.5H37.7049H10.0546C8.58958 4.5 7.18398 5.0788 6.1472 6.10995C5.11033 7.14119 4.52732 8.54043 4.52732 10V70C4.52732 71.4596 5.11033 72.8588 6.1472 73.89C7.18398 74.9212 8.58958 75.5 10.0546 75.5H50.2732C51.7383 75.5 53.1439 74.9212 54.1807 73.89C55.2175 72.8588 55.8005 71.4596 55.8005 70V22.5V22H55.3005H45.2459C43.3776 22 41.5864 21.2618 40.2662 19.9488C38.9461 18.6358 38.2049 16.8556 38.2049 15V5ZM10.0546 0.5H37.4986L59.8279 22.7079V70C59.8279 72.5187 58.8219 74.9347 57.0303 76.7166C55.2387 78.4985 52.8081 79.5 50.2732 79.5H10.0546C7.51972 79.5 5.08916 78.4985 3.29753 76.7166C1.50598 74.9347 0.5 72.5187 0.5 70V10C0.5 7.48133 1.50598 5.06526 3.29753 3.28345C5.08916 1.50155 7.51972 0.5 10.0546 0.5Z" fill="white" stroke="#21222C" stroke-width="2"/>
<path d="M18.6666 38.5C18.6666 37.5083 19.12 36.6583 19.7575 35.9783C20.4891 35.2516 21.3552 34.6742 22.3075 34.2783C24.7463 33.2773 27.3641 32.7856 30 32.8333C32.9466 32.8333 35.6666 33.3716 37.6925 34.2783C38.7125 34.7316 39.5908 35.2983 40.2425 35.9783C40.88 36.6725 41.3333 37.5225 41.3333 38.5V47.3683C40.6965 46.8377 39.9792 46.412 39.2083 46.1075V41.9C38.7297 42.2284 38.2223 42.5129 37.6925 42.75C35.2516 43.7413 32.6339 44.2234 30 44.1666C27.0533 44.1666 24.3333 43.6283 22.3075 42.7216C21.7786 42.4936 21.2713 42.2186 20.7916 41.9V55.5C20.7916 55.7833 20.9191 56.1516 21.3158 56.5625C21.6983 56.9875 22.3216 57.4125 23.1716 57.7808C25.6519 58.7943 28.3341 59.2163 31.0058 59.0133C31.8697 59.8386 32.9118 60.4542 34.0516 60.8125C32.7766 61.0391 31.4166 61.1666 30 61.1666C27.0533 61.1666 24.3333 60.6283 22.3075 59.7216C21.3552 59.3258 20.4891 58.7484 19.7575 58.0216C19.0822 57.3532 18.6914 56.4498 18.6666 55.5V38.5ZM20.7916 38.5C20.7916 38.7833 20.9191 39.1516 21.3158 39.5625C21.6983 39.9875 22.3216 40.4125 23.1716 40.7808C24.8716 41.5458 27.28 42.0416 30 42.0416C32.72 42.0416 35.1283 41.5458 36.8283 40.7808C37.6783 40.4125 38.3016 39.9875 38.6841 39.5625C39.0808 39.1375 39.2083 38.7975 39.2083 38.5C39.2083 38.2166 39.0808 37.8483 38.6841 37.4375C38.3016 37.0125 37.6783 36.5875 36.8283 36.2191C35.1283 35.4541 32.72 34.9583 30 34.9583C27.28 34.9583 24.8716 35.4541 23.1716 36.2191C22.3216 36.5875 21.6983 37.0125 21.3158 37.4375C20.9191 37.8625 20.7916 38.2025 20.7916 38.5ZM36.375 59.75C37.7491 59.75 39.0241 59.325 40.0583 58.5741L43.77 62.2716C43.8672 62.376 43.9845 62.4598 44.1149 62.5178C44.2452 62.5759 44.3859 62.6071 44.5286 62.6096C44.6712 62.6122 44.8129 62.5859 44.9452 62.5325C45.0775 62.479 45.1977 62.3995 45.2986 62.2986C45.3995 62.1977 45.479 62.0775 45.5325 61.9452C45.5859 61.8129 45.6121 61.6712 45.6096 61.5286C45.6071 61.3859 45.5759 61.2452 45.5178 61.1149C45.4597 60.9845 45.376 60.8672 45.2716 60.77L41.5741 57.0725C42.403 55.9083 42.8167 54.4995 42.7487 53.072C42.6808 51.6445 42.1353 50.2813 41.1996 49.2011C40.264 48.1209 38.9925 47.3864 37.5893 47.1156C36.1862 46.8447 34.7327 47.0531 33.4622 47.7074C32.1917 48.3617 31.1779 49.4239 30.5835 50.7235C29.9891 52.0231 29.8487 53.4847 30.1846 54.8737C30.5206 56.2627 31.3135 57.4986 32.4361 58.3829C33.5587 59.2672 34.9459 59.7486 36.375 59.75ZM36.375 57.625C35.2478 57.625 34.1668 57.1772 33.3698 56.3802C32.5727 55.5831 32.125 54.5021 32.125 53.375C32.125 52.2478 32.5727 51.1668 33.3698 50.3698C34.1668 49.5727 35.2478 49.125 36.375 49.125C37.5021 49.125 38.5831 49.5727 39.3802 50.3698C40.1772 51.1668 40.625 52.2478 40.625 53.375C40.625 54.5021 40.1772 55.5831 39.3802 56.3802C38.5831 57.1772 37.5021 57.625 36.375 57.625Z" fill="white"/>
</g>
<defs>
<clipPath id="clip0_1101_308">
<rect width="61" height="80" fill="white"/>
</clipPath>
</defs>
</svg>
