<svg xmlns="http://www.w3.org/2000/svg" width="168" height="208" viewBox="0 0 168 208" fill="none">
<path d="M4 4V204H164V44L124 4H4Z" stroke="#f8f8f2" stroke-width="7"/>
<path d="M124 4V44H164" stroke="#f8f8f2" stroke-width="7"/>
<path d="M65.399 121.705L47.04 134.862L55.807 143.816L74.339 129.356L65.399 121.705ZM113.782 87.03L68.752 119.303L77.709 126.728L122.533 91.763L113.782 87.03ZM89.202 90.148L36.572 124.18L44.297 132.068L97.257 95.114L89.202 90.148ZM103.022 81.213L91.642 88.571L99.688 93.418L110.998 85.526L103.022 81.213ZM96.29 116.971L58.925 147.001L68.964 157.246L106.351 124.18L96.29 116.971ZM125.592 93.419L99.112 114.703L109.149 121.706L135.235 98.635L125.592 93.419ZM63.426 93.419L27.288 114.701L34.151 121.708L70.704 98.633L63.426 93.419ZM138.613 100.464L72.55 160.912L84.148 172.75L149.296 106.24L138.613 100.464ZM93.183 75.89L66.238 91.762L73.53 96.85L100.484 79.836L93.183 75.89ZM84.148 71L90.853 74.63L25.131 112.498L19 106.239L84.148 71Z" fill="#f8f8f2"/>
</svg>