<svg width="61" height="80" viewBox="0 0 61 80" fill="none" xmlns="http://www.w3.org/2000/svg">
<path d="M38.2049 5V4.5H37.7049H10.0546C8.58958 4.5 7.18398 5.0788 6.1472 6.10995C5.11033 7.14119 4.52732 8.54043 4.52732 10V70C4.52732 71.4596 5.11033 72.8588 6.1472 73.89C7.18398 74.9212 8.58958 75.5 10.0546 75.5H50.2732C51.7383 75.5 53.1439 74.9212 54.1807 73.89C55.2175 72.8588 55.8005 71.4596 55.8005 70V22.5V22H55.3005H45.2459C43.3776 22 41.5864 21.2618 40.2662 19.9488C38.9461 18.6358 38.2049 16.8556 38.2049 15V5ZM10.0546 0.5H37.4986L59.8279 22.7079V70C59.8279 72.5187 58.8219 74.9347 57.0303 76.7166C55.2387 78.4985 52.8081 79.5 50.2732 79.5H10.0546C7.51972 79.5 5.08916 78.4985 3.29753 76.7166C1.50598 74.9347 0.5 72.5187 0.5 70V10C0.5 7.48133 1.50598 5.06526 3.29753 3.28345C5.08916 1.50155 7.51972 0.5 10.0546 0.5Z" fill="white" stroke="#21222C"/>
<path d="M17.0492 57.9989H43.9344V59.6721H17.0492V57.9989ZM43.9344 54.6524V56.3256H17.0492V54.6524L20.4099 47.9593H27.1312V51.3058H33.8525V47.9593H40.5738L43.9344 54.6524ZM22.9303 42.9395L30.4918 35.4099L38.0533 42.9395H32.1721V49.6326H28.8115V42.9395H22.9303Z" fill="white"/>
</svg>
